<svg width="308" height="290" viewBox="0 0 308 290" fill="none" xmlns="http://www.w3.org/2000/svg">
<path d="M278.291 221.891H17.0124C9.02838 221.891 2.96537 215.359 3.53737 207.375L17.3614 14.5161C17.9334 6.53212 24.9334 0.000106812 32.9174 0.000106812H294.196C302.18 0.000106812 308.243 6.53212 307.671 14.5161L293.847 207.375C293.275 215.359 286.275 221.891 278.291 221.891Z" fill="#1B1D1E"/>
<path d="M217.515 289.391H132.707L117.59 184.594H202.398L217.515 289.391Z" fill="#253238"/>
<path d="M204.047 283.146H112.306L110.484 289.391H202.226L204.047 283.146Z" fill="#1B1D1E"/>
<path d="M206.875 235.043L124.215 230.527L117.59 184.594H199.598L206.875 235.043Z" fill="#253238"/>
<path d="M275.342 221.891H14.0632C6.07916 221.891 0.0161515 215.359 0.588152 207.375L14.4122 14.5161C14.9842 6.53212 21.9842 0.000106812 29.9682 0.000106812H291.247C299.23 0.000106812 305.294 6.53212 304.722 14.5161L290.898 207.375C290.326 215.359 283.326 221.891 275.342 221.891Z" fill="#253238"/>
<path d="M274.789 218.282H15.1324C8.91839 218.282 4.19842 213.198 4.64442 206.984L18.4114 14.9077C18.8574 8.69374 24.3054 3.60974 30.5204 3.60974H290.176C296.391 3.60974 301.111 8.69374 300.665 14.9077L286.897 206.984C286.452 213.198 281.003 218.282 274.789 218.282Z" fill="white"/>
<path d="M274.789 218.282H15.1324C8.91839 218.282 4.19842 213.198 4.64442 206.984L18.4114 14.9077C18.8574 8.69374 24.3054 3.60974 30.5204 3.60974H290.176C296.391 3.60974 301.111 8.69374 300.665 14.9077L286.897 206.984C286.452 213.198 281.003 218.282 274.789 218.282Z" fill="#253238"/>
<g style="mix-blend-mode:overlay">
<path opacity="0.199997" d="M81.7367 209.769H21.0967C18.0937 209.769 15.8137 207.312 16.0287 204.31L29.4137 17.5816C29.6287 14.5796 32.2617 12.1226 35.2637 12.1226H95.9037C98.9057 12.1226 101.187 14.5796 100.971 17.5816L87.5867 204.31C87.3717 207.312 84.7387 209.769 81.7367 209.769Z" fill="white"/>
</g>
<path d="M79.3894 38.4463H48.0044C45.3004 38.4463 43.2464 36.2343 43.4404 33.5293L43.7854 28.7173C43.9784 26.0123 46.3504 23.8003 49.0544 23.8003H80.4394C83.1434 23.8003 85.1974 26.0123 85.0034 28.7173L84.6584 33.5293C84.4654 36.2343 82.0934 38.4463 79.3894 38.4463Z" fill="#5DB27B"/>
<path d="M69.0339 113.979H21.1199C16.4019 113.979 12.8179 110.119 13.1559 105.4L16.5899 57.4865C16.9289 52.7685 21.0659 48.9085 25.7839 48.9085H73.6979C78.4159 48.9085 81.9999 52.7685 81.6619 57.4865L78.2269 105.4C77.8889 110.119 73.7519 113.979 69.0339 113.979Z" fill="#5DB27B"/>
<path d="M57.4164 61.1021H27.2144C26.4934 61.1021 25.9464 60.5121 25.9974 59.7911C26.0494 59.0701 26.6814 58.4801 27.4024 58.4801H57.6044C58.3254 58.4801 58.8724 59.0701 58.8214 59.7911C58.7694 60.5121 58.1374 61.1021 57.4164 61.1021Z" fill="#1B1D1E"/>
<path d="M56.9379 67.7744H26.7359C26.0149 67.7744 25.4679 67.1844 25.5189 66.4634C25.5709 65.7424 26.2029 65.1524 26.9239 65.1524H57.1259C57.8469 65.1524 58.3939 65.7424 58.3429 66.4634C58.2909 67.1844 57.6589 67.7744 56.9379 67.7744Z" fill="#1B1D1E"/>
<path d="M46.0245 74.4468H26.2585C25.5375 74.4468 24.9895 73.8568 25.0415 73.1358C25.0925 72.4148 25.7255 71.8248 26.4465 71.8248H46.2125C46.9335 71.8248 47.4805 72.4148 47.4295 73.1358C47.3775 73.8568 46.7455 74.4468 46.0245 74.4468Z" fill="#1B1D1E"/>
<path d="M57.4951 106.238H28.2761C25.1921 106.238 22.8491 103.715 23.0701 100.631L24.1711 85.2788C24.3921 82.1948 27.0961 79.6718 30.1801 79.6718H59.3991C62.4831 79.6718 64.8261 82.1948 64.6051 85.2788L63.5041 100.631C63.2831 103.715 60.5791 106.238 57.4951 106.238Z" fill="#1B1D1E"/>
<path d="M75.1749 131.925H38.8189C37.4819 131.925 36.4659 130.831 36.5619 129.493C36.6579 128.156 37.8299 127.062 39.1679 127.062H75.5239C76.8609 127.062 77.8769 128.156 77.7809 129.493C77.6849 130.831 76.5119 131.925 75.1749 131.925Z" fill="#5DB27B"/>
<path d="M67.847 141.468H44.777C43.44 141.468 42.424 140.374 42.52 139.037C42.616 137.699 43.788 136.606 45.126 136.606H68.196C69.533 136.606 70.548 137.699 70.453 139.037C70.357 140.374 69.184 141.468 67.847 141.468Z" fill="#1B1D1E"/>
<path d="M73.2873 158.259H36.9312C35.5942 158.259 34.5782 157.165 34.6742 155.828C34.7702 154.49 35.9422 153.396 37.2802 153.396H73.6362C74.9733 153.396 75.9893 154.49 75.8932 155.828C75.7972 157.165 74.6243 158.259 73.2873 158.259Z" fill="#5DB27B"/>
<path d="M65.9602 167.802H42.8902C41.5532 167.802 40.5372 166.708 40.6332 165.371C40.7292 164.033 41.9022 162.939 43.2392 162.939H66.3092C67.6462 162.939 68.6622 164.033 68.5662 165.371C68.4702 166.708 67.2972 167.802 65.9602 167.802Z" fill="#1B1D1E"/>
<path d="M71.3996 184.594H35.0436C33.7066 184.594 32.6906 183.5 32.7866 182.162C32.8826 180.825 34.0546 179.731 35.3926 179.731H71.7486C73.0856 179.731 74.1016 180.825 74.0056 182.162C73.9096 183.5 72.7366 184.594 71.3996 184.594Z" fill="#5DB27B"/>
<path d="M64.0725 194.137H41.0025C39.6655 194.137 38.6495 193.043 38.7455 191.705C38.8415 190.368 40.0145 189.274 41.3515 189.274H64.4215C65.7585 189.274 66.7745 190.368 66.6785 191.705C66.5825 193.043 65.4095 194.137 64.0725 194.137Z" fill="#1B1D1E"/>
<path opacity="0.5" d="M277.607 155.014C279.184 152.61 282.796 153.626 282.596 156.41L279.098 205.213C278.918 207.727 277.02 209.77 274.864 209.77H99.0304C96.8744 209.77 95.2694 207.727 95.4504 205.213L97.5284 176.217C97.8084 172.306 101.787 169.491 105.447 170.631C115.357 173.72 123.849 171.906 131.74 167.993C148.62 159.614 162.742 141.63 182.148 141.63C182.892 141.63 183.624 141.649 184.337 141.696C213.202 143.438 221.997 179.292 244.358 179.292C250.968 179.292 257.001 176.439 262.254 172.372C268.688 167.395 273.943 160.602 277.607 155.014Z" fill="#5DB27B"/>
<g opacity="0.800003">
<path d="M282.117 163.456C282.02 163.456 281.936 163.413 281.861 163.35C281.828 163.317 281.796 163.274 281.786 163.232C281.765 163.189 281.753 163.136 281.753 163.093C281.753 162.987 281.796 162.902 281.861 162.837C281.989 162.698 282.234 162.688 282.372 162.837C282.447 162.902 282.48 162.998 282.48 163.093C282.48 163.136 282.469 163.189 282.458 163.232C282.437 163.274 282.404 163.317 282.372 163.35C282.309 163.413 282.213 163.456 282.117 163.456Z" fill="white"/>
<path d="M211.053 178.752V178.742C210.882 178.635 210.839 178.411 210.946 178.24C211.063 178.07 211.287 178.027 211.458 178.133C211.618 178.24 211.672 178.475 211.564 178.635C211.49 178.752 211.373 178.805 211.255 178.805C211.181 178.805 211.117 178.784 211.053 178.752ZM168.203 160.821C168.192 160.618 168.362 160.459 168.566 160.459C168.757 160.447 168.928 160.618 168.928 160.821C168.928 161.023 168.768 161.183 168.566 161.183C168.362 161.183 168.203 161.023 168.203 160.821ZM172.149 161.29H172.161C171.957 161.279 171.798 161.108 171.819 160.906C171.829 160.703 172 160.554 172.203 160.565C172.405 160.575 172.555 160.756 172.544 160.96C172.533 161.151 172.374 161.301 172.181 161.301C172.171 161.301 172.161 161.29 172.149 161.29ZM164.598 161.055C164.576 160.853 164.725 160.682 164.917 160.661C165.12 160.628 165.301 160.778 165.323 160.981C165.344 161.183 165.195 161.354 164.991 161.386H164.96C164.779 161.386 164.619 161.247 164.598 161.055ZM175.723 161.664C175.532 161.631 175.381 161.45 175.414 161.247C175.435 161.045 175.627 160.906 175.819 160.938H175.829C176.022 160.96 176.161 161.151 176.139 161.354C176.108 161.525 175.958 161.664 175.776 161.664H175.723ZM161.034 161.674C160.991 161.471 161.119 161.279 161.322 161.236C161.514 161.194 161.707 161.322 161.749 161.514C161.791 161.717 161.675 161.908 161.471 161.951C161.451 161.951 161.418 161.961 161.397 161.961C161.227 161.961 161.077 161.845 161.034 161.674ZM179.254 162.282C179.062 162.24 178.934 162.047 178.976 161.856C179.019 161.653 179.211 161.525 179.414 161.578C179.606 161.61 179.734 161.802 179.691 162.004C179.659 162.175 179.499 162.293 179.329 162.293C179.308 162.293 179.286 162.293 179.254 162.282ZM157.567 162.666C157.504 162.474 157.61 162.271 157.803 162.208C157.994 162.144 158.197 162.25 158.261 162.442C158.324 162.634 158.218 162.836 158.027 162.901C157.994 162.912 157.952 162.922 157.909 162.922C157.76 162.922 157.621 162.826 157.567 162.666ZM182.732 163.168C182.539 163.103 182.433 162.912 182.486 162.709C182.539 162.517 182.753 162.411 182.944 162.463C183.137 162.517 183.243 162.72 183.19 162.922C183.137 163.071 182.999 163.178 182.838 163.178C182.806 163.178 182.775 163.178 182.732 163.168ZM154.218 164.031C154.143 163.85 154.218 163.626 154.399 163.551C154.58 163.466 154.804 163.541 154.89 163.732C154.965 163.914 154.89 164.127 154.698 164.212C154.655 164.234 154.602 164.245 154.548 164.245C154.41 164.245 154.282 164.17 154.218 164.031ZM186.145 164.288C185.953 164.223 185.857 164.011 185.932 163.818C185.996 163.637 186.209 163.541 186.401 163.605C186.582 163.679 186.678 163.882 186.614 164.074C186.561 164.223 186.423 164.309 186.273 164.309C186.23 164.309 186.187 164.309 186.145 164.288ZM189.473 165.642C189.292 165.557 189.206 165.344 189.292 165.162C189.367 164.981 189.59 164.895 189.772 164.981C189.953 165.056 190.038 165.269 189.953 165.46C189.9 165.589 189.761 165.674 189.623 165.674C189.569 165.674 189.526 165.664 189.473 165.642ZM151.018 165.707C150.912 165.536 150.975 165.312 151.156 165.204C151.327 165.108 151.551 165.173 151.647 165.344C151.743 165.525 151.69 165.738 151.508 165.845H151.519C151.455 165.877 151.391 165.888 151.338 165.888C151.209 165.888 151.081 165.823 151.018 165.707ZM279.173 165.77C279.046 165.621 279.056 165.387 279.205 165.258H279.216C279.366 165.13 279.59 165.141 279.728 165.29C279.856 165.44 279.834 165.674 279.686 165.802C279.621 165.866 279.537 165.898 279.451 165.898C279.344 165.898 279.248 165.856 279.173 165.77ZM192.716 167.189C192.545 167.104 192.471 166.879 192.567 166.698C192.652 166.517 192.876 166.453 193.057 166.538C193.228 166.635 193.302 166.858 193.217 167.04C193.153 167.157 193.015 167.231 192.887 167.231C192.833 167.231 192.769 167.221 192.716 167.189ZM147.956 167.637C147.84 167.466 147.881 167.242 148.052 167.126C148.223 167.018 148.447 167.061 148.565 167.231C148.671 167.392 148.628 167.627 148.457 167.733C148.394 167.775 148.33 167.797 148.255 167.797C148.137 167.797 148.021 167.733 147.956 167.637ZM276.4 168.106C276.272 167.957 276.294 167.722 276.453 167.594C276.614 167.466 276.838 167.488 276.966 167.648C277.094 167.797 277.072 168.032 276.923 168.16C276.848 168.213 276.762 168.245 276.687 168.245C276.581 168.245 276.475 168.203 276.4 168.106ZM195.884 168.907C195.714 168.811 195.649 168.587 195.756 168.404C195.852 168.235 196.076 168.17 196.247 168.277C196.428 168.373 196.492 168.597 196.386 168.768C196.321 168.885 196.193 168.96 196.066 168.96C196.012 168.96 195.948 168.938 195.884 168.907ZM145.012 169.75C144.895 169.589 144.927 169.355 145.087 169.237C145.247 169.12 145.471 169.151 145.599 169.312C145.716 169.471 145.684 169.695 145.524 169.823C145.46 169.866 145.385 169.898 145.311 169.898C145.194 169.898 145.087 169.845 145.012 169.75ZM273.573 170.368C273.446 170.208 273.477 169.973 273.637 169.856C273.797 169.728 274.021 169.76 274.149 169.92C274.267 170.08 274.234 170.304 274.085 170.432H274.075C274.01 170.485 273.936 170.507 273.861 170.507C273.744 170.507 273.637 170.454 273.573 170.368ZM198.988 170.752C198.817 170.645 198.764 170.421 198.871 170.251C198.977 170.08 199.201 170.026 199.372 170.133C199.543 170.24 199.596 170.464 199.49 170.635C199.415 170.752 199.297 170.816 199.181 170.816C199.116 170.816 199.042 170.794 198.988 170.752ZM142.175 171.989C142.047 171.84 142.068 171.605 142.228 171.478C142.388 171.35 142.612 171.381 142.74 171.531C142.868 171.69 142.847 171.925 142.687 172.042C142.623 172.107 142.537 172.127 142.452 172.127C142.356 172.127 142.25 172.085 142.175 171.989ZM270.672 172.533C270.543 172.374 270.586 172.149 270.747 172.032C270.906 171.914 271.141 171.946 271.258 172.107C271.376 172.266 271.333 172.502 271.173 172.618C271.109 172.661 271.034 172.683 270.96 172.683C270.853 172.683 270.736 172.64 270.672 172.533ZM202.029 172.704C201.858 172.587 201.805 172.362 201.921 172.203C202.029 172.032 202.263 171.979 202.423 172.095C202.593 172.203 202.636 172.427 202.53 172.598C202.466 172.704 202.348 172.757 202.231 172.757C202.157 172.757 202.092 172.747 202.029 172.704ZM139.39 174.304C139.252 174.155 139.273 173.92 139.433 173.793C139.583 173.664 139.817 173.685 139.945 173.835C140.074 173.995 140.052 174.218 139.903 174.346C139.828 174.411 139.754 174.432 139.668 174.432C139.561 174.432 139.455 174.389 139.39 174.304ZM205.036 174.709C204.866 174.592 204.824 174.369 204.94 174.208C205.048 174.037 205.272 173.995 205.442 174.102C205.612 174.218 205.655 174.442 205.538 174.613C205.474 174.72 205.357 174.773 205.239 174.773C205.176 174.773 205.101 174.752 205.036 174.709ZM267.706 174.624C267.589 174.454 267.632 174.229 267.791 174.112C267.962 173.995 268.186 174.037 268.304 174.208C268.41 174.369 268.379 174.603 268.208 174.709C268.143 174.752 268.069 174.773 268.005 174.773C267.887 174.773 267.77 174.72 267.706 174.624ZM136.607 176.629C136.479 176.48 136.499 176.246 136.649 176.117C136.809 175.989 137.044 176.011 137.172 176.16C137.299 176.32 137.279 176.544 137.118 176.671C137.055 176.736 136.969 176.757 136.884 176.757C136.788 176.757 136.681 176.714 136.607 176.629ZM264.666 176.608C264.56 176.437 264.613 176.213 264.784 176.096C264.954 175.989 265.179 176.043 265.285 176.213C265.391 176.384 265.338 176.608 265.167 176.714C265.114 176.757 265.05 176.779 264.975 176.779C264.858 176.779 264.741 176.714 264.666 176.608ZM208.034 176.736C207.874 176.619 207.821 176.395 207.938 176.224C208.055 176.064 208.279 176.022 208.45 176.128C208.61 176.246 208.653 176.47 208.546 176.64C208.472 176.747 208.354 176.8 208.236 176.8C208.173 176.8 208.098 176.779 208.034 176.736ZM261.572 178.485C261.466 178.304 261.529 178.09 261.7 177.984C261.871 177.888 262.095 177.941 262.202 178.112C262.298 178.283 262.245 178.507 262.074 178.613C262.01 178.646 261.946 178.667 261.882 178.667C261.765 178.667 261.637 178.603 261.572 178.485ZM133.801 178.912C133.673 178.752 133.694 178.528 133.855 178.4C134.014 178.272 134.239 178.304 134.366 178.454C134.494 178.613 134.463 178.848 134.313 178.976C134.239 179.029 134.164 179.051 134.079 179.051C133.972 179.051 133.865 179.008 133.801 178.912ZM258.404 180.235C258.308 180.064 258.372 179.84 258.553 179.745C258.724 179.648 258.948 179.723 259.045 179.894C259.141 180.075 259.076 180.289 258.895 180.395C258.842 180.417 258.778 180.438 258.724 180.438C258.596 180.438 258.469 180.362 258.404 180.235ZM214.125 180.694V180.683C213.954 180.587 213.901 180.362 214.007 180.192C214.103 180.011 214.327 179.957 214.498 180.064C214.679 180.171 214.733 180.395 214.626 180.565C214.551 180.683 214.434 180.747 214.317 180.747C214.253 180.747 214.178 180.726 214.125 180.694ZM130.899 181.099C130.782 180.928 130.825 180.704 130.985 180.587C131.145 180.47 131.379 180.502 131.497 180.662C131.614 180.822 131.572 181.056 131.412 181.174C131.347 181.217 131.273 181.248 131.198 181.248C131.08 181.248 130.974 181.195 130.899 181.099ZM255.161 181.856C255.076 181.675 255.151 181.461 255.332 181.376C255.513 181.291 255.737 181.366 255.823 181.547C255.908 181.728 255.823 181.942 255.642 182.027L255.652 182.038C255.599 182.06 255.546 182.07 255.493 182.07C255.353 182.07 255.226 181.995 255.161 181.856ZM217.272 182.518C217.091 182.422 217.026 182.198 217.122 182.017C217.218 181.846 217.443 181.781 217.624 181.878C217.794 181.974 217.859 182.188 217.763 182.369C217.698 182.485 217.57 182.561 217.443 182.561C217.389 182.561 217.325 182.539 217.272 182.518ZM127.892 183.104C127.784 182.934 127.839 182.699 128.008 182.593C128.179 182.485 128.403 182.539 128.511 182.71C128.617 182.88 128.564 183.104 128.393 183.211C128.34 183.254 128.265 183.275 128.201 183.275C128.083 183.275 127.966 183.211 127.892 183.104ZM251.845 183.318C251.77 183.137 251.855 182.923 252.047 182.848C252.228 182.763 252.441 182.848 252.517 183.041C252.602 183.222 252.517 183.436 252.324 183.521C252.281 183.542 252.228 183.542 252.185 183.542C252.036 183.542 251.908 183.457 251.845 183.318ZM220.525 184.15C220.344 184.075 220.259 183.851 220.344 183.67C220.43 183.489 220.643 183.414 220.824 183.489C221.016 183.574 221.091 183.788 221.006 183.979C220.941 184.107 220.813 184.193 220.674 184.193C220.621 184.193 220.568 184.181 220.525 184.15ZM248.462 184.598C248.388 184.405 248.494 184.203 248.676 184.139L248.686 184.128C248.868 184.064 249.081 184.171 249.146 184.352C249.209 184.545 249.113 184.757 248.922 184.822C248.879 184.833 248.846 184.843 248.804 184.843C248.655 184.843 248.516 184.747 248.462 184.598ZM124.734 184.855C124.638 184.684 124.712 184.46 124.894 184.363C125.075 184.278 125.288 184.352 125.384 184.534C125.47 184.704 125.406 184.928 125.225 185.014C125.172 185.046 125.118 185.056 125.054 185.056C124.926 185.056 124.798 184.981 124.734 184.855ZM223.896 185.537C223.704 185.472 223.608 185.259 223.672 185.078C223.746 184.886 223.949 184.79 224.141 184.855C224.334 184.928 224.43 185.131 224.365 185.323C224.312 185.472 224.163 185.558 224.013 185.558C223.97 185.558 223.928 185.558 223.896 185.537ZM244.995 185.665C244.942 185.461 245.05 185.259 245.252 185.205C245.444 185.152 245.646 185.27 245.699 185.461C245.753 185.654 245.636 185.856 245.444 185.91C245.412 185.921 245.38 185.932 245.347 185.932C245.188 185.932 245.038 185.824 244.995 185.665ZM121.416 186.294C121.341 186.103 121.438 185.889 121.63 185.824C121.811 185.75 122.025 185.846 122.099 186.027C122.163 186.219 122.078 186.433 121.886 186.496C121.844 186.518 121.801 186.528 121.758 186.528C121.608 186.528 121.47 186.433 121.416 186.294ZM227.394 186.593C227.192 186.55 227.075 186.357 227.128 186.155C227.17 185.963 227.363 185.846 227.565 185.889C227.758 185.932 227.875 186.134 227.832 186.326C227.789 186.496 227.64 186.604 227.48 186.604C227.449 186.604 227.416 186.604 227.394 186.593ZM241.465 186.465C241.422 186.262 241.55 186.07 241.752 186.038C241.945 185.995 242.137 186.123 242.179 186.326C242.222 186.518 242.094 186.71 241.892 186.752C241.87 186.752 241.849 186.763 241.827 186.763C241.657 186.763 241.497 186.636 241.465 186.465ZM100.349 186.817C100.157 186.763 100.039 186.561 100.092 186.369C100.157 186.176 100.349 186.06 100.552 186.113C100.744 186.176 100.85 186.369 100.797 186.571C100.754 186.731 100.605 186.827 100.444 186.827C100.412 186.827 100.381 186.827 100.349 186.817ZM230.979 187.254C230.787 187.232 230.637 187.051 230.67 186.848C230.692 186.646 230.873 186.507 231.075 186.528C231.278 186.561 231.417 186.742 231.395 186.934C231.363 187.127 231.213 187.265 231.032 187.265C231.011 187.265 231.001 187.265 230.979 187.254ZM237.88 186.966C237.86 186.763 238.009 186.582 238.201 186.571C238.403 186.539 238.585 186.689 238.606 186.891C238.627 187.094 238.478 187.275 238.275 187.296H238.244C238.062 187.296 237.902 187.158 237.88 186.966ZM234.627 187.479C234.425 187.479 234.265 187.318 234.265 187.115C234.265 186.913 234.435 186.752 234.627 186.752C234.83 186.752 234.99 186.913 234.99 187.115C234.99 187.318 234.83 187.479 234.627 187.479ZM117.96 187.329C117.907 187.127 118.025 186.934 118.227 186.88C118.419 186.838 118.611 186.956 118.664 187.147C118.717 187.339 118.589 187.542 118.397 187.595V187.585C118.365 187.595 118.334 187.595 118.312 187.595C118.141 187.595 117.992 187.489 117.96 187.329ZM103.891 187.691C103.698 187.648 103.571 187.457 103.602 187.254C103.645 187.062 103.837 186.934 104.039 186.966C104.231 187.009 104.359 187.2 104.328 187.403C104.285 187.574 104.135 187.691 103.964 187.691H103.891ZM114.397 187.926C114.376 187.723 114.515 187.542 114.717 187.521C114.92 187.499 115.101 187.638 115.122 187.841C115.144 188.043 115.006 188.224 114.803 188.246H114.76C114.579 188.246 114.419 188.107 114.397 187.926ZM107.496 188.246H107.506C107.304 188.236 107.154 188.054 107.176 187.851C107.197 187.648 107.378 187.51 107.581 187.532C107.783 187.552 107.922 187.734 107.901 187.926C107.879 188.118 107.72 188.256 107.539 188.256C107.528 188.256 107.517 188.256 107.496 188.246ZM111.154 188.448C110.952 188.448 110.792 188.289 110.792 188.085C110.792 187.894 110.952 187.734 111.154 187.734V187.723C111.358 187.723 111.517 187.894 111.517 188.085C111.517 188.289 111.358 188.46 111.154 188.46V188.448Z" fill="white"/>
<path d="M96.8708 185.676C96.8278 185.676 96.7748 185.665 96.7318 185.644C96.6898 185.623 96.6468 185.601 96.6148 185.558C96.5818 185.527 96.5508 185.494 96.5398 185.442C96.5188 185.399 96.5078 185.356 96.5078 185.303C96.5078 185.206 96.5508 185.122 96.6148 185.047C96.6468 185.014 96.6898 184.982 96.7318 184.972C96.8178 184.929 96.9238 184.929 97.0098 184.972C97.0628 184.982 97.0948 185.014 97.1268 185.047C97.2008 185.122 97.2328 185.206 97.2328 185.303C97.2328 185.356 97.2328 185.399 97.2118 185.442C97.1908 185.494 97.1698 185.527 97.1268 185.558C97.0948 185.601 97.0518 185.623 97.0098 185.644C96.9668 185.665 96.9238 185.676 96.8708 185.676Z" fill="white"/>
</g>
<path opacity="0.5" d="M281.255 175.121L279.098 205.213C278.918 207.727 277.02 209.77 274.864 209.77H99.0303C96.8743 209.77 95.2693 207.727 95.4493 205.213L99.7363 145.415C100.029 141.32 105.397 139.597 107.57 142.911C113.18 151.47 121.813 162.523 131.74 167.994C135.545 170.084 139.53 171.355 143.617 171.355C157.825 171.355 169.908 154.501 184.337 141.696C193.185 133.844 202.914 127.507 214.551 127.507C238.843 127.507 242.426 166.977 262.254 172.372C266.077 173.417 270.5 173.191 275.795 171.166C278.631 170.084 281.468 172.155 281.255 175.121Z" fill="#5DB27B"/>
<path d="M155.364 76.4409L152.873 73.7569C148.451 77.8829 142.567 80.4329 136.27 80.4329C125.722 80.4329 117.36 73.2669 115.455 63.5359L111.72 64.5169L108.307 65.4139C109.311 70.5149 111.658 75.1609 115.122 78.8919C125.949 90.5549 145.14 90.5549 157.639 78.8919L155.364 76.4409Z" fill="#1B1D1E"/>
<path d="M160.687 36.3746L157.427 39.4166L155.176 41.5176C159.007 45.6356 161.155 51.3366 160.704 57.6336C160.253 63.9296 157.294 69.6316 152.873 73.7576L154.823 75.8586L157.639 78.8926C163.682 73.2536 167.398 65.6076 167.969 57.6336C168.54 49.6676 165.921 42.0126 160.687 36.3746Z" fill="#253238"/>
<path d="M160.687 36.3745C149.859 24.7196 130.668 24.7196 118.169 36.3745C110.046 43.9615 106.277 55.0536 108.307 65.4146L112.529 64.3055L115.455 63.5355C115.092 61.6555 114.967 59.6706 115.113 57.6336C116.015 45.0476 126.953 34.8415 139.538 34.8415C145.835 34.8415 151.346 37.3916 155.176 41.5175L158.06 38.8265L160.687 36.3745Z" fill="#5DB27B"/>
<path d="M191.324 76.4416L194.2 73.7576C190.37 69.6326 188.229 63.9306 188.68 57.6336C189.436 47.0856 197.239 38.2096 207.156 35.6086L206.438 31.9426H206.437L205.781 28.5946C200.582 29.9636 195.743 32.6446 191.745 36.3756C179.246 48.0386 177.871 67.2296 188.698 78.8926L191.324 76.4416Z" fill="#1B1D1E"/>
<path d="M231.215 78.8927L228.391 75.8507L226.441 73.7507C222.027 77.8757 216.142 80.4337 209.845 80.4337C203.549 80.4337 198.03 77.8837 194.2 73.7577L191.948 75.8587L188.697 78.8927C193.931 84.5307 201.351 87.6987 209.325 87.6987C217.291 87.6987 225.173 84.5307 231.215 78.8927Z" fill="#253238"/>
<path d="M231.215 78.8926C243.705 67.2296 245.081 48.0386 234.263 36.3746C227.218 28.7956 216.34 25.8216 205.781 28.5946L206.593 32.7366L207.156 35.6076C209.073 35.1096 211.077 34.8426 213.113 34.8426C225.699 34.8426 235.174 45.0486 234.272 57.6336C233.82 63.9306 230.862 69.6246 226.441 73.7506L228.939 76.4416L231.215 78.8926Z" fill="#5DB27B"/>
<path d="M281.597 29.3084H263.197C261.385 29.3084 259.797 30.7904 259.667 32.6024L258.348 51.0024C258.218 52.8144 259.594 54.2964 261.406 54.2964H279.806C281.618 54.2964 283.206 52.8144 283.336 51.0024L284.655 32.6024C284.785 30.7904 283.409 29.3084 281.597 29.3084ZM281.597 30.2494C282.207 30.2494 282.763 30.4864 283.162 30.9144C283.563 31.3454 283.76 31.9214 283.716 32.5354L282.397 50.9344C282.303 52.2464 281.116 53.3554 279.806 53.3554H261.406C260.796 53.3554 260.24 53.1194 259.841 52.6904C259.44 52.2594 259.243 51.6834 259.287 51.0694L260.606 32.6704C260.7 31.3584 261.887 30.2494 263.197 30.2494H281.597Z" fill="#1B1D1E"/>
<path d="M279.328 60.969H260.928C259.116 60.969 257.528 62.451 257.398 64.263L256.079 82.663C255.949 84.475 257.325 85.957 259.137 85.957H277.537C279.349 85.957 280.937 84.475 281.067 82.663L282.386 64.263C282.516 62.451 281.14 60.969 279.328 60.969ZM279.328 61.91C279.939 61.91 280.494 62.147 280.893 62.575C281.294 63.006 281.491 63.582 281.447 64.196L280.128 82.595C280.034 83.907 278.848 85.016 277.537 85.016H259.137C258.527 85.016 257.971 84.78 257.572 84.351C257.171 83.92 256.974 83.344 257.018 82.73L258.337 64.331C258.431 63.019 259.618 61.91 260.928 61.91H279.328Z" fill="#1B1D1E"/>
<path d="M252.39 162.78C250.772 162.78 249.367 164.092 249.251 165.71C249.135 167.327 250.352 168.639 251.97 168.639C253.588 168.639 254.994 167.327 255.109 165.71C255.225 164.092 254.008 162.78 252.39 162.78ZM252.39 163.722C252.907 163.722 253.375 163.919 253.708 164.277C254.043 164.637 254.208 165.122 254.17 165.642C254.089 166.776 253.102 167.697 251.97 167.697C251.453 167.697 250.985 167.5 250.652 167.142C250.317 166.782 250.153 166.297 250.19 165.777C250.271 164.644 251.258 163.722 252.39 163.722Z" fill="white"/>
<path d="M252.624 162.796L252.155 162.763L252.223 161.824L252.692 161.858L252.624 162.796Z" fill="#1B1D1E"/>
<path d="M255.591 121.403L255.122 121.37L255.261 119.444L255.73 119.477L255.591 121.403ZM255.315 125.256L254.846 125.223L254.985 123.296L255.454 123.329L255.315 125.256ZM255.039 129.109L254.57 129.075L254.709 127.149L255.177 127.182L255.039 129.109ZM254.763 132.962L254.294 132.928L254.432 131.001L254.9 131.034L254.763 132.962ZM254.487 136.814L254.018 136.781L254.155 134.855L254.624 134.888L254.487 136.814ZM254.211 140.667L253.742 140.634L253.879 138.707L254.348 138.74L254.211 140.667ZM253.934 144.52L253.465 144.486L253.603 142.56L254.072 142.593L253.934 144.52ZM253.658 148.373L253.189 148.34L253.327 146.412L253.796 146.446L253.658 148.373ZM253.382 152.225L252.913 152.192L253.051 150.266L253.52 150.299L253.382 152.225ZM253.105 156.079L252.637 156.045L252.775 154.118L253.244 154.152L253.105 156.079ZM252.829 159.931L252.361 159.898L252.499 157.971L252.968 158.005L252.829 159.931Z" fill="#1B1D1E"/>
<path d="M255.867 117.55L255.398 117.517L255.465 116.578L255.934 116.612L255.867 117.55Z" fill="#1B1D1E"/>
<path d="M107.941 99.3725C106.52 99.3725 105.281 100.528 105.179 101.95L104.346 113.579C104.298 114.25 104.515 114.88 104.955 115.353C105.394 115.825 106.003 116.084 106.67 116.084H275.582C277.003 116.084 278.242 114.928 278.345 113.506L279.179 101.877C279.226 101.206 279.01 100.575 278.568 100.102C278.129 99.6315 277.521 99.3725 276.854 99.3725H107.941ZM275.582 117.105H106.67C105.717 117.105 104.843 116.729 104.208 116.048C103.572 115.364 103.26 114.462 103.329 113.506L104.163 101.877C104.301 99.9345 105.996 98.3515 107.941 98.3515H276.854C277.808 98.3515 278.682 98.7265 279.315 99.4065C279.951 100.09 280.264 100.993 280.195 101.95L279.362 113.579C279.222 115.523 277.526 117.105 275.582 117.105Z" fill="#1B1D1E"/>
<path fill-rule="evenodd" clip-rule="evenodd" d="M271.956 105.849H111.838C110.967 105.849 110.306 105.137 110.369 104.266C110.431 103.396 111.194 102.684 112.064 102.684H272.183C273.053 102.684 273.714 103.396 273.652 104.266C273.589 105.137 272.826 105.849 271.956 105.849Z" fill="#1B1D1E"/>
<path fill-rule="evenodd" clip-rule="evenodd" d="M245.272 112.521H111.36C110.49 112.521 109.829 111.809 109.891 110.938C109.953 110.068 110.716 109.356 111.587 109.356H245.499C246.369 109.356 247.03 110.068 246.968 110.938C246.905 111.809 246.142 112.521 245.272 112.521Z" fill="#1B1D1E"/>
</svg>
