<svg width="352" height="348" viewBox="0 0 352 348" fill="none" xmlns="http://www.w3.org/2000/svg">
<path d="M185.199 31.4725C166.448 31.4785 151.473 46.3895 151.479 65.0505C151.484 83.6505 166.543 98.5975 185.271 98.5915C204.051 98.5845 218.946 83.7065 218.926 64.9745C218.907 46.2215 204.053 31.4665 185.199 31.4725ZM243.332 55.7855V58.8885C240.459 60.9835 237.104 62.1725 234.011 63.8535C230.888 65.5515 230.497 69.7505 233.323 71.9265C235.572 73.6585 237.844 75.3675 240.183 76.9745C241.893 78.1485 242.256 79.4995 241.46 81.3975C240.497 83.6955 239.627 86.0415 238.873 88.4165C238.298 90.2275 237.201 90.8475 235.385 90.6275C232.74 90.3085 230.077 90.1295 227.433 89.8025C223.716 89.3435 220.468 93.1495 221.679 96.7155C222.646 99.5645 223.753 102.369 224.86 105.168C225.458 106.682 225.116 107.806 223.819 108.76C221.67 110.34 219.54 111.948 217.444 113.597C216.157 114.609 214.998 114.602 213.735 113.554C211.683 111.849 209.512 110.284 207.516 108.519C205.888 107.079 204.306 107.051 202.292 107.666C199.507 108.515 197.863 110.005 197.582 112.996C197.43 114.613 196.783 116.185 196.653 117.801C196.395 120.987 195.051 122.953 191.629 123H183.356C182.182 119.679 181.01 116.357 179.833 113.036C179.49 112.067 179.208 111.084 178.176 110.534C174.558 108.604 171.442 109.062 168.515 112.004C161.716 118.834 161.716 118.834 153.61 113.739C153.537 113.693 153.467 113.642 153.391 113.603C151.948 112.856 151.535 111.749 151.981 110.168C152.75 107.437 153.477 104.69 154.091 101.921C154.919 98.1915 150.553 93.8145 146.844 94.5895C144.067 95.1705 141.287 95.7405 138.528 96.4015C137.036 96.7595 136.032 96.3345 135.338 94.9815C134.161 92.6855 132.989 90.3855 131.736 88.1295C130.879 86.5865 131.178 85.4175 132.467 84.2685C134.649 82.3225 136.787 80.3215 138.873 78.2715C141.432 75.7585 140.252 70.0515 136.919 68.7695C133.628 67.5045 130.308 66.3155 127 65.0925V58.8885C127.155 57.9575 127.392 57.0325 127.448 56.0955C127.604 53.4805 128.756 52.0455 131.544 51.8045C134.018 51.5895 136.456 50.9485 138.907 50.4855C142.663 49.7765 144.603 44.9755 142.35 41.8805C140.729 39.6535 139.062 37.4575 137.343 35.3045C136.239 33.9215 136.303 32.7215 137.439 31.3925C139.172 29.3635 140.853 27.2875 142.483 25.1755C143.541 23.8055 144.708 23.4925 146.308 24.1915C149.147 25.4325 152.009 26.6265 154.907 27.7215C157.88 28.8455 161.537 25.9525 161.247 22.8205C160.994 20.0785 160.808 17.3315 160.547 14.5905C160.379 12.8245 160.908 11.6145 162.745 11.0485C165.376 10.2385 167.985 9.34751 170.568 8.39351C172.307 7.75151 173.521 8.18851 174.534 9.71351C176.058 12.0085 177.651 14.2575 179.264 16.4915C181.546 19.6495 185.521 19.4255 187.364 16.0505C188.973 13.1035 190.553 10.1405 192.146 7.18551H195.248C197.827 7.84951 200.394 8.5675 202.99 9.16051C204.876 9.59251 205.734 10.6375 205.761 12.5925C205.8 15.4295 205.96 18.2665 206.147 21.0985C206.379 24.6055 209.444 26.3075 212.497 24.6555C214.995 23.3045 217.496 21.9555 219.953 20.5345C221.516 19.6305 222.803 19.6805 224.09 21.0655C226.022 23.1465 228.031 25.1575 230.059 27.1455C231.299 28.3615 231.457 29.5845 230.537 31.0635C229.128 33.3285 227.782 35.6345 226.442 37.9405C224.248 41.7155 226.068 44.9775 230.483 45.2415C233.144 45.4005 235.802 45.6485 238.466 45.7385C240.217 45.7965 241.116 46.5815 241.483 48.2785C242.027 50.7965 242.708 53.2845 243.332 55.7855Z" fill="#253238"/>
<g style="mix-blend-mode:multiply" opacity="0.149994">
<path d="M345.58 185.782L299.709 131.853C292.229 123.021 279.914 120.13 269.764 124.823L51.6756 226.028C44.6966 230.686 37.7146 243.659 43.0016 255.985L66.9426 327.258C73.9576 347.747 92.9526 351.334 105.762 345.188L336.218 229.647C356.849 220.262 353.274 195.659 345.58 185.782Z" fill="#313169"/>
<path d="M345.579 185.782L296.058 128.255C288.988 119.846 277.127 117.282 267.215 122.019L57.1682 222.407C45.6182 227.926 40.3982 241.511 45.2792 253.345L71.3292 326.106C76.6532 339.013 91.7952 344.712 104.308 338.517L337.825 222.896C351.828 215.963 355.635 197.742 345.579 185.782Z" fill="#313169"/>
<path d="M345.579 185.782L299.372 128.971C292.302 120.562 277.127 117.282 267.215 122.019L57.1682 222.407C45.6182 227.926 40.3982 241.511 45.2792 253.345L71.3292 326.106C76.6532 339.013 91.7952 344.712 104.308 338.517L337.825 222.896C351.828 215.963 355.635 197.742 345.579 185.782Z" fill="#313169"/>
<path d="M337.825 222.896C340.996 221.111 343.793 218.722 345.927 215.839C348.063 212.963 349.593 209.641 350.292 206.134C351.053 202.641 350.984 198.983 350.176 195.494C349.375 191.998 347.769 188.689 345.579 185.782C346.159 186.48 346.736 187.187 347.306 187.903C347.822 188.655 348.286 189.445 348.78 190.22C349.215 191.026 349.559 191.88 349.954 192.711C350.296 193.564 350.539 194.455 350.836 195.328C351.808 198.89 351.877 202.687 351.157 206.314C350.362 209.927 348.781 213.379 346.463 216.253C345.841 216.934 345.262 217.653 344.607 218.297C343.913 218.901 343.256 219.546 342.534 220.11C341.771 220.623 341.03 221.161 340.257 221.644C339.448 222.072 338.636 222.489 337.825 222.896Z" fill="#313169"/>
<path d="M76.7164 331.659C82.8444 338.74 92.9934 340.78 101.394 336.619L334.912 220.998C340.606 218.18 344.618 212.994 345.918 206.774C347.217 200.554 345.617 194.196 341.528 189.333L291.813 131.579C285.77 124.597 275.731 122.502 267.398 126.484L57.3514 226.872C47.4984 231.581 43.0434 243.176 47.2064 253.269L73.3174 326.187C74.1084 328.096 75.2724 329.991 76.7164 331.659Z" fill="#313169"/>
<path d="M101.775 337.013L135.327 320.881L168.797 304.584L235.611 271.733L302.243 238.515L335.494 221.775C341.179 218.938 345.351 213.384 346.511 207.207C347.777 201.046 346.009 194.406 341.909 189.726C345.9 194.504 347.468 201.117 346.088 207.118C344.807 213.145 340.624 218.406 335.109 221L301.639 237.296L234.827 270.15L168.196 303.37L134.945 320.11L101.775 337.013Z" fill="#313169"/>
<path d="M333.406 171.39C333.406 171.39 322.503 177.406 318.429 173.253C314.355 169.1 298.847 152.139 298.045 148.994C297.243 145.848 304.667 138.281 305.515 139.121C306.694 140.291 333.406 171.39 333.406 171.39Z" fill="#313169"/>
<path d="M303.887 244.809C304.597 246.218 306.827 246.54 308.843 245.525L321.028 239.385C323.044 238.37 324.111 236.386 323.401 234.976C322.691 233.567 320.461 233.245 318.446 234.26L306.26 240.4C304.245 241.415 303.177 243.399 303.887 244.809Z" fill="#313169"/>
<path d="M304.84 244.746C305.411 245.879 307.42 246.028 309.304 245.079L320.701 239.337C322.585 238.387 323.66 236.683 323.09 235.551C322.519 234.418 320.51 234.268 318.625 235.218L307.229 240.96C305.344 241.91 304.269 243.614 304.84 244.746Z" fill="#313169"/>
<path d="M322.19 165.289C323.642 167.545 320.494 170.678 318.391 167.434C316.951 165.211 320.497 162.547 322.19 165.289Z" fill="#313169"/>
<path d="M321.789 164.78C321.93 164.925 322.066 165.089 322.19 165.289C323.637 167.539 320.51 170.658 318.408 167.456C320.467 169.711 323.101 166.883 321.789 164.78Z" fill="#313169"/>
<g style="mix-blend-mode:overlay">
<path d="M321.836 167.584C321.836 167.584 321.363 167.82 320.795 167.18C320.227 166.54 320.476 166.324 320.815 166.336C321.155 166.348 321.802 166.415 322.053 166.895C322.305 167.376 321.836 167.584 321.836 167.584Z" fill="#313169"/>
</g>
<path d="M341.535 189.425L291.82 131.671C285.777 124.689 275.739 122.593 267.405 126.576L57.3577 226.964C49.0537 230.932 44.6077 239.792 45.8997 248.522C86.4747 220.398 197.916 148.917 258.835 166.714C289.159 175.573 315.389 197.505 335.92 220.559C341.082 217.647 344.703 212.715 345.925 206.866C347.224 200.645 345.625 194.288 341.535 189.425Z" fill="#313169"/>
</g>
<path d="M345.58 181.782L299.709 127.853C292.229 119.021 279.914 116.13 269.764 120.823L51.6756 222.028C44.6966 226.686 37.7146 239.659 43.0016 251.985L66.9426 323.258C73.9576 343.747 92.9526 347.334 105.762 341.188L336.218 225.647C356.849 216.262 353.274 191.659 345.58 181.782Z" fill="#1B1D1E"/>
<path d="M345.58 181.782L296.059 124.255C288.989 115.846 277.128 113.282 267.216 118.019L57.1692 218.407C45.6192 223.926 40.3992 237.511 45.2802 249.345L71.3302 322.106C76.6542 335.013 91.7962 340.712 104.309 334.517L337.826 218.896C351.829 211.963 355.636 193.742 345.58 181.782Z" fill="#BDC2CA"/>
<path d="M345.58 181.782L299.373 124.971C292.303 116.562 277.128 113.282 267.216 118.019L57.1692 218.407C45.6192 223.926 40.3992 237.511 45.2802 249.345L71.3302 322.106C76.6542 335.013 91.7962 340.712 104.309 334.517L337.826 218.896C351.829 211.963 355.636 193.742 345.58 181.782Z" fill="#373B3D"/>
<path d="M76.7164 327.659C82.8444 334.74 92.9934 336.78 101.394 332.619L334.912 216.998C340.606 214.18 344.618 208.994 345.918 202.774C347.217 196.554 345.617 190.196 341.528 185.333L291.813 127.579C285.77 120.597 275.731 118.502 267.398 122.484L57.3514 222.872C47.4984 227.581 43.0434 239.176 47.2064 249.269L73.3174 322.187C74.1084 324.096 75.2724 325.991 76.7164 327.659Z" fill="#253238"/>
<path d="M298.468 190.701C294.286 184.742 290.206 178.708 286.138 172.672C282.058 166.618 278.043 160.52 274.008 154.436C269.995 148.387 266.014 141.339 260.193 136.917C256.183 133.872 251.54 138.881 252.395 142.912C253.839 149.728 258.852 156.431 262.446 162.323C266.238 168.539 270.027 174.757 273.877 180.937C277.555 186.842 281.335 192.675 285.241 198.432C288.818 203.704 293.246 213.436 300.161 214.383C303.164 214.793 307.145 213.698 307.729 210.085C308.984 202.329 302.66 196.675 298.468 190.701Z" fill="#1B1D1E"/>
<path d="M238.498 147.702C235.262 147.485 227.579 151.498 225.392 153.484C221.039 157.436 231.215 174.405 237.117 174.041C239.754 173.878 246.683 170.156 248.481 168.354C253.094 163.733 241.672 147.914 238.498 147.702Z" fill="#1B1D1E"/>
<path d="M272.334 201.477C268.194 194.75 264.054 188.023 259.913 181.297C256.589 175.896 249.112 175.375 244.911 179.11C240.231 183.269 240.1 190.509 243.477 195.898C247.666 202.581 251.855 209.264 256.045 215.947C260.231 222.626 264.823 231.326 273.1 229.798C275.945 229.273 278.707 227.263 279.653 224.078C282.221 215.431 276.602 208.411 272.334 201.477Z" fill="#1B1D1E"/>
<g style="mix-blend-mode:multiply">
<path opacity="0.149994" d="M226.088 215.304C218.588 217.412 211.332 221.566 204.231 224.79C197.223 227.973 190.232 231.195 183.213 234.353C176.209 237.505 169.259 240.789 162.316 244.077C155.65 247.234 148.202 250.149 143.922 256.436C142.255 258.885 143.813 263.392 146.895 263.838C154.423 264.926 161.342 261.575 168.207 258.656C175.279 255.648 182.342 252.548 189.287 249.253C196.226 245.961 203.153 242.637 210.04 239.235C217.073 235.76 225.014 232.606 231.359 227.966C237.336 223.595 234.029 213.072 226.088 215.304Z" fill="#5362B7"/>
</g>
<path d="M105.91 207.32L200.363 161.639C202.183 160.772 204.364 161.389 205.459 163.082L256.254 241.611C257.578 243.656 256.788 246.4 254.579 247.428L148.076 297.029C145.998 297.997 143.533 297.031 142.666 294.909L103.92 212.461C103.116 210.49 103.989 208.235 105.91 207.32Z" fill="#1B1D1E"/>
<path d="M85.2767 273.296C79.4327 259.815 73.0707 246.618 66.1097 233.733C63.0537 228.077 55.0077 233.079 57.8297 238.806C63.9907 251.309 69.8837 263.974 75.2897 276.857C77.9477 283.191 80.4607 289.588 82.9257 296.006C85.3567 302.338 87.8537 309.664 91.7537 315.125C93.7387 317.904 98.8567 317.404 98.6397 313.171C97.9447 299.584 90.5637 285.492 85.2767 273.296Z" fill="#1B1D1E"/>
<g style="mix-blend-mode:multiply">
<path opacity="0.149994" d="M178.818 151.928C178.818 151.928 187.865 142.76 188.746 141.194C189.627 139.628 184.867 154.743 181.914 154.468C181.469 153.887 178.818 151.928 178.818 151.928Z" fill="#E9AFBD"/>
</g>
<g style="mix-blend-mode:multiply">
<path opacity="0.149994" d="M181.334 181.857C181.334 181.857 175.021 185.012 171.017 184.243C171.32 184.397 173.782 193.89 174.32 193.68C174.857 193.469 184.965 189.603 184.965 189.603L181.334 181.857Z" fill="#E9AFBD"/>
</g>
<path d="M178.005 171.804L177.901 171.807" stroke="#574F7B" stroke-width="0.5"/>
<path d="M178.03 173.638L177.926 173.641" stroke="#574F7B" stroke-width="0.5"/>
<path d="M177.977 177.31L178.081 177.307" stroke="#574F7B" stroke-width="0.5"/>
<path d="M178.055 175.473L177.951 175.476" stroke="#574F7B" stroke-width="0.5"/>
<path d="M178.002 179.145L178.106 179.142" stroke="#574F7B" stroke-width="0.5"/>
<path d="M159.995 158.517C158.531 158.772 157.176 159.741 156.116 160.74C155.023 161.771 154.096 162.956 153.308 164.223C153.042 164.651 153.754 165.078 154.057 164.677C154.912 163.548 155.896 162.559 156.993 161.655C158.067 160.768 159.285 160.006 160.261 159.017C160.446 158.83 160.256 158.472 159.995 158.517Z" fill="#E9AFBD"/>
<path d="M195.459 102.796C195.516 102.76 195.526 102.751 195.489 102.741C195.398 102.836 195.37 102.83 195.459 102.796Z" fill="#E6EBFD"/>
<path d="M155.844 0.591448C155.844 0.589448 155.844 0.588448 155.845 0.586448C155.828 0.591448 155.824 0.592448 155.844 0.591448Z" fill="#E6EBFD"/>
<path d="M155.944 0.59375C155.964 0.56175 155.951 0.56175 155.885 0.57275C155.864 0.58075 155.855 0.58375 155.845 0.58675C155.845 0.58675 155.845 0.58975 155.845 0.59175C155.862 0.58975 155.897 0.59075 155.944 0.59375Z" fill="#E6EBFD"/>
<path d="M155.802 0.828125C155.813 0.803125 155.824 0.775125 155.835 0.751125C155.892 0.664125 155.928 0.620125 155.944 0.594125C155.897 0.590125 155.862 0.590125 155.844 0.591125C155.83 0.670125 155.815 0.749125 155.802 0.828125Z" fill="#E6EBFD"/>
<path d="M100.351 66.1284C111.59 95.6824 116.094 121.457 110.41 123.696C104.727 125.937 91.0087 103.794 79.7697 74.2404C68.5307 44.6864 64.0277 18.9124 69.7107 16.6714C75.3937 14.4324 89.1117 36.5744 100.351 66.1284Z" fill="#1B1D1E"/>
<path d="M96.7179 174.189C96.1599 172.126 94.7089 171.542 93.1519 170.428C91.3529 169.141 89.8779 166.972 88.4249 165.298C85.2709 161.666 77.2529 158.173 74.2799 154.288C69.7249 148.336 66.7099 142.985 64.0209 137.388C64.4659 136.962 64.8959 136.519 65.2959 136.036C66.2409 134.894 67.4779 133.459 67.0459 131.835C66.5869 130.111 65.2209 129.668 63.6599 129.581C62.5249 129.518 61.4029 129.235 60.3719 128.743C60.2649 128.691 60.1529 128.655 60.0419 128.617C58.8569 125.924 57.6199 123.105 56.2189 120.071C56.1429 119.892 47.4879 125.793 46.3269 126.298C42.4799 127.834 38.1369 128.495 34.0559 128.961C31.4379 129.261 28.7879 129.42 26.1549 129.266C23.6329 129.118 21.4199 128.912 19.3209 127.585C19.2479 129.046 20.2169 133.173 18.4749 133.944C16.7999 134.685 16.7949 134.688 16.7949 134.688C16.8249 134.674 18.2789 136.656 19.8769 138.844C19.5989 139.164 19.4019 139.542 19.3499 139.956C19.3109 140.018 19.2689 140.085 19.2199 140.163C19.0089 140.499 18.8469 140.861 18.7569 141.253C18.4939 142.409 18.9549 143.462 19.7449 144.274C21.0429 145.606 22.6619 147.102 24.6599 146.598C24.9699 146.52 25.2459 146.383 25.5069 146.224C26.0269 146.818 26.5569 147.397 27.0889 147.974C26.9979 148.147 26.9079 148.321 26.8179 148.495C26.2219 149.641 26.5379 151.25 27.7319 151.874C28.6499 152.353 29.8119 152.242 30.5669 151.554C34.3789 155.293 38.4269 158.744 42.5849 162.215C49.1889 167.73 55.8659 173.169 62.8959 178.115C66.4799 180.637 70.1549 183.029 73.9419 185.223C76.4799 186.693 78.9669 188.27 81.6329 189.497C83.0889 190.167 84.5569 190.909 86.1309 191.247C88.7759 191.814 90.0509 189.799 91.0919 187.731C91.7489 187.833 92.4519 187.65 93.0589 187.014C94.0949 185.927 95.1339 184.698 95.7439 183.306C96.4119 181.781 96.6009 180.185 96.7659 178.537C96.8179 178.024 96.6469 177.541 96.3499 177.137C96.7409 176.128 96.9649 175.1 96.7179 174.189Z" fill="#1B1D1E"/>
<path d="M94.3574 73.1711C93.8514 71.5151 93.2714 69.8881 92.5684 68.3071C91.9394 66.8911 91.1984 65.4551 89.8774 64.5881C86.6114 62.4431 83.1834 65.6011 80.6644 67.4691C79.7804 68.1261 79.3644 69.2791 79.9614 70.3011C80.0714 70.4891 80.2304 70.6481 80.4044 70.7911C80.2634 71.8611 80.4754 72.9751 80.7344 74.0271C81.4484 76.9291 82.5894 79.7401 84.0544 82.3311C84.4304 82.9971 85.2184 83.3751 85.9684 83.3271C86.7274 83.6331 87.4864 83.4971 88.2054 83.1971C89.7344 83.3641 91.4824 82.5361 92.7054 81.7491C93.9444 80.9511 95.0464 79.7961 95.3124 78.2771C95.6094 76.5781 94.8454 74.7711 94.3574 73.1711Z" fill="#5DB27B"/>
<g style="mix-blend-mode:multiply">
<path opacity="0.149994" d="M112.863 116.178C105.356 106.996 92.0937 89.3466 85.7197 72.1876C79.2497 54.7686 76.9317 32.1076 76.0817 20.0896C73.4887 17.3146 71.2887 16.0496 69.7107 16.6716C64.0277 18.9116 68.5307 44.6856 79.7697 74.2396C91.0087 103.795 104.727 125.937 110.411 123.698C112.072 123.042 112.857 120.364 112.863 116.178Z" fill="#5362B7"/>
</g>
<path d="M35.1045 77.0228L45.2475 100.937L55.0685 123.054C55.0685 123.054 65.2505 119.667 76.0895 120.312C86.9275 120.957 102.265 128.662 110.41 123.697C110.5 123.607 97.8675 121.473 78.2535 62.8788C73.1445 47.6148 67.2525 18.1598 69.7105 16.6718C72.1685 15.1838 67.2545 17.7598 65.7135 23.5508C63.5865 31.5448 62.1255 39.8168 59.0665 47.5238C56.1195 54.9468 51.4685 61.6178 46.1025 67.4298C45.1015 68.5138 34.8435 76.4078 35.1045 77.0228Z" fill="#253238"/>
<g style="mix-blend-mode:multiply">
<path opacity="0.149994" d="M91.4369 183.818C89.7539 185.893 88.6649 188.442 88.2459 191.097C89.5499 190.547 90.3759 189.151 91.0909 187.731C91.7479 187.833 92.4509 187.651 93.0579 187.014C94.0939 185.927 95.1329 184.698 95.7429 183.306C96.4109 181.781 96.5999 180.185 96.7649 178.537C96.8169 178.024 96.6459 177.541 96.3489 177.137C96.7399 176.128 96.9639 175.1 96.7169 174.189C96.1589 172.126 94.7079 171.542 93.1509 170.428C91.3519 169.141 89.8769 166.972 88.4239 165.298C85.2699 161.666 77.2519 158.173 74.2789 154.288C69.7239 148.337 66.7089 142.985 64.0199 137.388C64.4649 136.962 64.8949 136.519 65.2949 136.036C66.2399 134.894 67.4769 133.459 67.0449 131.835C66.5859 130.111 65.2199 129.668 63.6589 129.581C62.5239 129.518 61.4019 129.235 60.3709 128.743C60.2639 128.692 60.1519 128.655 60.0409 128.617C58.8559 125.924 57.6189 123.105 56.2179 120.071C56.1419 119.892 47.4869 125.793 46.3259 126.298C42.4789 127.834 38.1359 128.495 34.0549 128.962C31.4369 129.261 28.7869 129.42 26.1539 129.266C23.6319 129.118 21.4189 128.912 19.3199 127.585C19.2469 129.047 20.2159 133.173 18.4739 133.944C16.7989 134.685 16.7939 134.688 16.7939 134.688C16.8239 134.674 18.2419 136.608 19.8169 138.763C21.5469 138.298 23.3489 138.113 25.1349 138.236C32.3989 140.769 40.7729 139.747 47.2439 135.538C47.9869 135.055 48.7329 134.52 49.5979 134.346C50.3549 134.193 51.1349 134.33 51.9049 134.382C54.2779 134.545 56.6979 133.875 58.6619 132.511C61.7199 150.737 73.7969 167.154 90.1159 175.269C91.7409 176.077 93.6199 177.082 93.9069 178.9C94.2049 180.781 92.6289 182.349 91.4369 183.818Z" fill="#5362B7"/>
</g>
<path d="M30.1079 79.7899C30.1079 79.7899 1.12692 90.4099 8.74892 110.608C16.8679 132.121 25.8799 134.012 28.5189 134.227C31.1569 134.442 35.3139 133.617 41.0689 131.295C46.8249 128.974 51.0419 125.986 51.0419 125.986C51.0419 125.986 37.3319 98.6759 36.3469 96.3389C35.3619 94.0009 30.1079 79.7899 30.1079 79.7899Z" fill="#253238"/>
<g style="mix-blend-mode:overlay">
<path opacity="0.199997" d="M28.3849 90.4567C29.9859 89.6377 31.6069 88.8657 33.3549 88.5167C31.7399 84.2047 30.1079 79.7897 30.1079 79.7897C30.1079 79.7897 1.12692 90.4107 8.74892 110.608C9.73092 113.211 10.6829 115.527 11.6009 117.588C12.0839 118.672 13.6699 118.097 13.4009 116.938C13.3929 116.903 13.3849 116.869 13.3769 116.833C12.3339 112.286 12.1399 107.358 13.9769 103.078C16.5669 97.0407 22.6019 93.4147 28.3849 90.4567Z" fill="#DFE4F2"/>
</g>
<path d="M23.291 130.706C20.292 121.337 15.098 112.852 8.15505 105.986L7.85905 105.693C4.20305 108.13 0.143047 111.073 0.949047 113.74C1.75405 116.407 3.21305 118.812 4.65705 121.184C4.86105 121.517 5.06405 121.85 5.26605 122.183C4.86505 122.432 4.51005 122.757 4.28705 123.186C4.18805 123.425 4.08905 123.664 3.99005 123.903C3.92705 124.141 3.90305 124.378 3.89605 124.616C3.78405 124.907 3.71505 125.21 3.72705 125.536C3.71305 125.949 3.79705 126.334 3.98205 126.691C4.10005 127.063 4.30305 127.385 4.59105 127.657C5.15205 128.182 5.89005 128.571 6.67405 128.536C6.93605 128.5 7.19705 128.464 7.45805 128.429C7.91305 128.299 8.30605 128.061 8.65105 127.741C9.38605 128.947 10.121 130.153 10.856 131.36C12.463 134 14.719 136.989 17.756 136.685C19.641 136.498 22.609 134.109 23.943 132.742L23.291 130.706Z" fill="#1B1D1E"/>
<g style="mix-blend-mode:multiply">
<path opacity="0.149994" d="M23.2913 130.705C20.2923 121.336 15.0973 112.851 8.15533 105.985L7.85933 105.692C6.85333 106.363 5.81933 107.073 4.86133 107.804C7.40033 110.538 11.5333 115.22 14.6273 119.855C17.7383 124.514 20.2163 130.884 21.5723 134.777C22.5153 134.077 23.3783 133.32 23.9423 132.741L23.2913 130.705Z" fill="#5362B7"/>
</g>
<g style="mix-blend-mode:multiply">
<path opacity="0.149994" d="M76.0896 120.311C86.9276 120.956 102.265 128.661 110.411 123.697C110.447 123.66 108.358 123.279 104.537 118.846C103.189 118.987 101.839 119.151 100.487 119.199C95.4356 119.377 90.4736 117.901 85.7146 116.169C83.0096 115.184 80.3136 114.101 77.9056 112.507C76.2926 111.439 74.7976 110.138 73.0026 109.434C68.8566 107.809 64.5376 109.718 60.6006 111.057C56.6346 112.405 52.9346 112.262 54.1486 117.851C54.4876 119.416 55.3046 120.883 55.3536 122.486C55.3586 122.647 55.3396 122.809 55.3306 122.97C56.9886 122.452 66.2696 119.727 76.0896 120.311Z" fill="#5362B7"/>
</g>
<path d="M55.3325 129.311L55.3175 129.318C52.1565 130.835 48.3495 129.443 46.8595 126.224L26.4655 82.1786C24.9755 78.9596 26.3425 75.0846 29.5045 73.5676L29.5185 73.5606C32.6805 72.0426 36.4875 73.4356 37.9775 76.6546L58.3715 120.7C59.8615 123.918 58.4945 127.793 55.3325 129.311Z" fill="#1B1D1E"/>
<g style="mix-blend-mode:overlay">
<path opacity="0.199997" d="M108.455 120.701C108.426 120.681 108.399 120.664 108.37 120.643C108.077 120.431 107.774 120.181 107.47 119.913C107.001 119.499 106.528 119.032 106.074 118.52C104.559 116.851 103.161 114.899 101.837 112.903C99.1904 108.883 96.8594 104.557 94.6284 100.186C92.3964 95.8078 90.3434 91.3198 88.3734 86.7908C86.3924 82.2668 84.5464 77.6758 82.7964 73.0478C81.0284 68.4258 79.3564 63.7668 77.8294 59.0638C76.2904 54.3658 74.8394 49.6398 73.5934 44.8728C72.3524 40.1118 71.2144 35.3158 70.5134 30.5298C70.2814 28.9108 70.0954 27.2878 70.0004 25.6998C69.9554 24.9478 69.9244 24.2018 69.9294 23.4718C69.9244 22.3358 70.0264 21.2378 70.2234 20.3278C70.3074 19.9048 70.4364 19.5818 70.5434 19.3278C70.5564 19.2488 70.5704 19.1698 70.5844 19.0918C70.5654 19.0928 70.5684 19.0918 70.5854 19.0868C70.8814 17.3918 71.3284 15.6428 72.0004 14.1778C71.0934 13.9418 69.9734 13.8408 68.7974 14.2708C67.5254 14.7838 66.7044 15.7328 66.1684 16.5888C65.6974 17.4298 65.3864 18.2548 65.1964 19.0108C64.8054 20.5348 64.6584 21.9508 64.6074 23.3188C64.4944 26.0628 64.6944 28.6718 64.9684 31.2608C65.5554 36.4208 66.5194 41.4438 67.6914 46.4038C70.0474 56.3178 73.1884 65.9608 76.7434 75.4338C80.3804 84.8738 84.4364 94.1568 89.2524 103.101C91.6664 107.572 94.2764 111.946 97.2554 116.163C98.7644 118.264 100.342 120.331 102.241 122.283C103.184 123.259 104.228 124.204 105.526 125.064C106.166 125.493 106.941 125.888 107.846 126.188C108.809 126.453 110.044 126.592 111.323 126.098C112.512 125.596 113.284 124.716 113.799 123.899C111.823 123.155 109.684 121.645 108.455 120.701Z" fill="white"/>
</g>
<g style="mix-blend-mode:overlay">
<path opacity="0.199997" d="M69.3625 17.2279C68.2485 18.3739 66.5215 20.5169 65.7145 23.5509C63.5865 31.5449 62.1255 39.8169 59.0665 47.5239C56.1205 54.9469 51.4685 61.6179 46.1025 67.4299C45.1005 68.5139 34.8435 76.4079 35.1045 77.0229C35.1045 77.0229 35.7225 78.4799 36.6515 80.6699C37.7655 79.8339 39.0015 79.1679 40.3285 78.7649C46.1595 76.9929 53.4945 79.4599 57.8565 75.1409C61.6155 71.4199 60.5555 65.1979 61.1215 59.8929C61.6205 55.2179 63.5745 50.8529 65.5035 46.5799C67.3605 42.4649 69.2175 38.3499 71.0745 34.2339C69.5295 26.0619 68.7105 19.2459 69.3625 17.2279Z" fill="white"/>
</g>
<g style="mix-blend-mode:overlay">
<path opacity="0.199997" d="M69.7103 16.672C69.5653 16.76 69.4503 16.953 69.3623 17.228C70.3733 16.187 70.8803 15.964 69.7103 16.672Z" fill="white"/>
</g>
<path d="M130.766 295.623C130.687 289.599 122.463 290.323 122.463 290.323C122.463 290.323 126.525 283.135 121.074 280.57C107.83 274.34 108.681 299.197 108.681 299.197C108.681 299.197 130.957 310.257 130.766 295.623Z" fill="#1B1D1E"/>
<path d="M108.849 242.786C105.329 234.649 101.373 225.09 93.6552 220.213C87.0162 216.018 79.7052 222.608 79.6072 229.264C79.4952 236.775 84.7072 245.061 87.7962 251.737C91.2542 259.208 93.6742 267.495 101.715 271.278C105.277 272.954 109.837 271.799 111.667 268.115C115.906 259.578 112.357 250.895 108.849 242.786Z" fill="#1B1D1E"/>
<g style="mix-blend-mode:multiply">
<path opacity="0.149994" d="M184.965 193.683L202.307 243.676L239.536 230.667L230.98 202.537L211.148 185.727L187.522 182.549L184.965 193.683Z" fill="#A7C3CE"/>
</g>
<path d="M213.926 234.525C213.713 218.196 191.421 220.157 191.421 220.157C191.421 220.157 202.432 200.676 187.655 193.724C151.759 176.837 154.064 244.211 154.064 244.211C154.064 244.211 214.444 274.192 213.926 234.525Z" fill="#5DB27B"/>
<path d="M268.33 49.2006C259.379 51.0946 253.735 59.7226 255.619 68.6306C257.498 77.5096 266.194 83.1266 275.133 81.2346C284.098 79.3376 289.708 70.7326 287.809 61.7926C285.909 52.8426 277.33 47.2966 268.33 49.2006ZM298.533 54.9446C298.637 55.4386 298.742 55.9316 298.846 56.4256C297.686 57.7156 296.204 58.6216 294.897 59.7366C293.578 60.8616 293.815 62.9056 295.383 63.6586C296.632 64.2596 297.888 64.8456 299.167 65.3766C300.101 65.7646 300.411 66.3736 300.223 67.3596C299.994 68.5536 299.816 69.7616 299.695 70.9716C299.604 71.8936 299.142 72.3006 298.253 72.3786C296.958 72.4926 295.669 72.6766 294.374 72.7866C292.554 72.9426 291.387 75.0866 292.325 76.6676C293.074 77.9296 293.885 79.1566 294.695 80.3816C295.134 81.0436 295.084 81.6146 294.561 82.2006C293.694 83.1716 292.84 84.1546 292.005 85.1526C291.493 85.7656 290.939 85.8796 290.23 85.5056C289.079 84.8996 287.885 84.3706 286.754 83.7296C285.832 83.2066 285.073 83.3526 284.174 83.8496C282.93 84.5356 282.295 85.4126 282.463 86.8686C282.554 87.6566 282.403 88.4716 282.504 89.2566C282.702 90.8036 282.259 91.8776 280.63 92.2446C279.314 92.5236 277.997 92.8016 276.681 93.0796C275.786 91.6126 274.891 90.1446 273.994 88.6786C273.732 88.2496 273.499 87.8096 272.951 87.6506C271.029 87.0946 269.588 87.6276 268.487 89.3266C265.93 93.2736 265.93 93.2736 261.547 91.6586C261.508 91.6436 261.469 91.6266 261.429 91.6156C260.665 91.4046 260.356 90.9176 260.409 90.1176C260.501 88.7366 260.571 87.3516 260.585 85.9686C260.604 84.1046 258.078 82.4556 256.386 83.1996C255.119 83.7566 253.849 84.3086 252.599 84.9026C251.922 85.2246 251.4 85.1226 250.933 84.5466C250.139 83.5696 249.348 82.5896 248.522 81.6396C247.957 80.9886 247.982 80.4006 248.481 79.7216C249.327 78.5736 250.146 77.4026 250.935 76.2136C251.903 74.7556 250.764 72.1506 249.044 71.8746C247.345 71.6026 245.64 71.3696 243.938 71.1196C243.729 70.1326 243.521 69.1446 243.312 68.1576C243.292 67.6986 243.312 67.2326 243.244 66.7796C243.055 65.5146 243.461 64.7146 244.767 64.3176C245.926 63.9656 247.025 63.4136 248.149 62.9456C249.87 62.2286 250.313 59.7406 248.925 58.4906C247.926 57.5906 246.909 56.7106 245.872 55.8566C245.205 55.3076 245.114 54.7286 245.523 53.9786C246.145 52.8356 246.738 51.6756 247.304 50.5026C247.67 49.7416 248.196 49.4746 249.03 49.6466C250.511 49.9526 251.997 50.2346 253.491 50.4656C255.024 50.7016 256.478 48.9516 256.023 47.4856C255.626 46.2026 255.26 44.9096 254.859 43.6276C254.601 42.8016 254.731 42.1706 255.551 41.7156C256.726 41.0636 257.881 40.3746 259.018 39.6586C259.784 39.1776 260.407 39.2626 261.045 39.8886C262.003 40.8306 262.991 41.7436 263.986 42.6476C265.394 43.9246 267.269 43.4176 267.808 41.6196C268.279 40.0516 268.735 38.4776 269.197 36.9066C269.69 36.8016 270.184 36.6976 270.678 36.5936C271.976 36.6506 273.274 36.7336 274.573 36.7556C275.516 36.7716 276.032 37.1836 276.242 38.1136C276.547 39.4646 276.909 40.8026 277.284 42.1356C277.748 43.7866 279.383 44.2896 280.674 43.1936C281.73 42.2966 282.788 41.4006 283.818 40.4736C284.472 39.8846 285.092 39.7786 285.846 40.3106C286.978 41.1096 288.14 41.8666 289.309 42.6116C290.023 43.0666 290.222 43.6346 289.932 44.4336C289.488 45.6566 289.078 46.8926 288.671 48.1296C288.004 50.1526 289.202 51.5266 291.336 51.2066C292.623 51.0136 293.916 50.8646 295.197 50.6386C296.039 50.4906 296.547 50.7736 296.893 51.5466C297.407 52.6946 297.983 53.8136 298.533 54.9446Z" fill="#253238"/>
</svg>
