<svg width="528" height="501" viewBox="0 0 528 501" fill="none" xmlns="http://www.w3.org/2000/svg">
<g clip-path="url(#clip0_95_177)">
<path d="M373.256 229.216H910.26V228.107H373.256V229.216Z" fill="#5EB77D"/>
<path d="M373.34 230.33C372.418 230.33 371.671 229.583 371.671 228.661C371.671 227.739 372.418 226.992 373.34 226.992C374.262 226.992 375.009 227.739 375.009 228.661C375.009 229.583 374.262 230.33 373.34 230.33Z" fill="#5EB77D"/>
<path d="M605.821 200.758H743.411V199.648H606.28L545.166 138.553H306.617L293.642 125.569H228.589L206.341 147.825H112.522L95.5586 164.779L96.3426 165.565L112.981 148.936H206.8L229.048 126.679H293.182L306.157 139.662H544.707L605.821 200.758Z" fill="#5EB77D"/>
<path d="M97.1885 166.293C96.5365 166.944 95.4795 166.944 94.8285 166.293C94.1765 165.641 94.1775 164.584 94.8285 163.933C95.4805 163.281 96.5375 163.281 97.1895 163.933C97.8405 164.585 97.8405 165.642 97.1885 166.293Z" fill="#5EB77D"/>
<path d="M311.172 186.082H562.05V184.972H311.631L288.199 161.529H185.763V162.639H287.739L311.172 186.082Z" fill="#5EB77D"/>
<path d="M185.846 163.753C184.924 163.753 184.177 163.005 184.177 162.084C184.177 161.162 184.924 160.415 185.846 160.415C186.768 160.415 187.515 161.162 187.515 162.084C187.515 163.005 186.768 163.753 185.846 163.753Z" fill="#5EB77D"/>
<path d="M805.025 190.708H887.382V189.599H805.484L760.29 144.403H683.285L601.254 62.373H302.947V63.482H600.795L682.826 145.514H759.831L805.025 190.708Z" fill="#5EB77D"/>
<path d="M303.03 64.5967C302.108 64.5967 301.361 63.8497 301.361 62.9277C301.361 62.0067 302.108 61.2587 303.03 61.2587C303.952 61.2587 304.699 62.0067 304.699 62.9277C304.699 63.8497 303.952 64.5967 303.03 64.5967Z" fill="#5EB77D"/>
<path d="M622.39 182.174L623.175 181.39L561.075 119.29H441.1L418.504 96.7018H254.256L242.68 108.269H157.161L136.26 129.177L137.045 129.962L157.62 109.378H243.14L254.715 97.8118H418.044L440.641 120.4H560.615L622.39 182.174Z" fill="#5EB77D"/>
<path d="M137.892 130.69C137.24 131.341 136.184 131.341 135.532 130.69C134.88 130.039 134.88 128.982 135.531 128.33C136.183 127.678 137.24 127.678 137.892 128.33C138.543 128.981 138.544 130.038 137.892 130.69Z" fill="#5EB77D"/>
<path d="M632.431 148.7L633.216 147.916L578.94 93.6312H470.114L454.767 78.2942H216.772L204.244 65.7572L203.46 66.5422L216.313 79.4042H454.307L469.654 94.7402H578.48L632.431 148.7Z" fill="#5EB77D"/>
<path d="M202.73 67.3887C202.079 66.7367 202.079 65.6797 202.731 65.0287C203.383 64.3767 204.44 64.3767 205.091 65.0297C205.743 65.6807 205.742 66.7377 205.09 67.3897C204.438 68.0397 203.381 68.0397 202.73 67.3887Z" fill="#5EB77D"/>
<path d="M323.036 168.956H539.171V167.847H323.036V168.956Z" fill="#5EB77D"/>
<path d="M323.12 170.07C322.198 170.07 321.451 169.323 321.451 168.401C321.451 167.48 322.198 166.732 323.12 166.732C324.042 166.732 324.789 167.48 324.789 168.401C324.789 169.323 324.042 170.07 323.12 170.07Z" fill="#5EB77D"/>
<path d="M210.877 348.917H439.701L499.135 289.494H767.014L804.958 244.845H890.17V243.734H804.445L766.501 288.385H498.675L439.242 347.808H210.877V348.917Z" fill="#5EB77D"/>
<path d="M210.961 350.031C210.04 350.031 209.292 349.284 209.292 348.362C209.292 347.441 210.04 346.693 210.961 346.693C211.883 346.693 212.63 347.441 212.63 348.362C212.63 349.284 211.883 350.031 210.961 350.031Z" fill="#5EB77D"/>
<path d="M186.326 301.217H379.161L417.668 262.708H767.689V261.598H417.208L378.701 300.107H186.326V301.217Z" fill="#5EB77D"/>
<path d="M186.41 302.33C185.488 302.33 184.741 301.583 184.741 300.661C184.741 299.739 185.488 298.992 186.41 298.992C187.332 298.992 188.079 299.739 188.079 300.661C188.079 301.583 187.332 302.33 186.41 302.33Z" fill="#5EB77D"/>
<path d="M158.976 328.002H294.895L307.452 315.444H413.751L455.479 273.717L454.695 272.933L413.292 314.334H306.993L294.435 326.893H158.976V328.002Z" fill="#5EB77D"/>
<path d="M456.208 274.564C456.86 273.912 456.86 272.855 456.208 272.204C455.556 271.552 454.5 271.552 453.848 272.204C453.196 272.855 453.196 273.912 453.848 274.564C454.5 275.215 455.556 275.215 456.208 274.564Z" fill="#5EB77D"/>
<path d="M159.06 329.116C158.139 329.116 157.391 328.369 157.391 327.447C157.391 326.525 158.139 325.778 159.06 325.778C159.982 325.778 160.729 326.525 160.729 327.447C160.729 328.369 159.982 329.116 159.06 329.116Z" fill="#5EB77D"/>
<path d="M383.306 246.808H602.783V245.698H383.306V246.808Z" fill="#5EB77D"/>
<path d="M383.39 247.922C382.468 247.922 381.721 247.175 381.721 246.253C381.721 245.331 382.468 244.584 383.39 244.584C384.312 244.584 385.059 245.331 385.059 246.253C385.059 247.175 384.312 247.922 383.39 247.922Z" fill="#5EB77D"/>
<path d="M296.108 281.116H379.542V280.007H296.567L263.084 246.533H109.593V247.642H262.625L296.108 281.116Z" fill="#5EB77D"/>
<path d="M379.458 282.23C380.38 282.23 381.127 281.482 381.127 280.561C381.127 279.639 380.38 278.892 379.458 278.892C378.536 278.892 377.789 279.639 377.789 280.561C377.789 281.482 378.536 282.23 379.458 282.23Z" fill="#5EB77D"/>
<path d="M109.676 248.757C108.755 248.757 108.007 248.01 108.007 247.088C108.007 246.166 108.755 245.419 109.676 245.419C110.598 245.419 111.345 246.166 111.345 247.088C111.345 248.01 110.598 248.757 109.676 248.757Z" fill="#5EB77D"/>
<path d="M154.787 226.708H300.756L318.328 209.136H491.602L503.435 197.285L502.651 196.501L491.142 208.025H317.869L300.297 225.599H154.787V226.708Z" fill="#5EB77D"/>
<path d="M504.165 198.131C504.816 197.479 504.815 196.422 504.163 195.772C503.511 195.12 502.454 195.121 501.803 195.773C501.152 196.425 501.153 197.482 501.805 198.133C502.457 198.784 503.514 198.783 504.165 198.131Z" fill="#5EB77D"/>
<path d="M154.87 227.821C153.948 227.821 153.201 227.074 153.201 226.153C153.201 225.231 153.948 224.484 154.87 224.484C155.791 224.484 156.539 225.231 156.539 226.153C156.539 227.074 155.791 227.821 154.87 227.821Z" fill="#5EB77D"/>
<path d="M89.0876 204.665H203.379L222.905 185.149H283.331V184.039H222.445L202.919 203.556H89.5466L72.7616 186.779L71.9766 187.564L89.0876 204.665Z" fill="#5EB77D"/>
<path d="M283.248 186.264C284.17 186.264 284.917 185.516 284.917 184.595C284.917 183.673 284.17 182.926 283.248 182.926C282.326 182.926 281.579 183.673 281.579 184.595C281.579 185.516 282.326 186.264 283.248 186.264Z" fill="#5EB77D"/>
<path d="M71.2499 188.411C70.5979 187.76 70.5979 186.703 71.2489 186.052C71.9009 185.399 72.9579 185.399 73.6089 186.051C74.2609 186.702 74.2609 187.759 73.6099 188.411C72.9589 189.062 71.9019 189.063 71.2499 188.411Z" fill="#5EB77D"/>
<path d="M331.262 418.391H683.839L844.365 257.884L843.581 257.1L683.38 417.281H331.722L299.074 384.644H102.941L70.4402 352.123H31.7412V353.233H69.9802L102.481 385.753H298.615L331.262 418.391Z" fill="#5EB77D"/>
<path d="M31.8253 354.347C30.9033 354.347 30.1562 353.6 30.1562 352.678C30.1562 351.756 30.9033 351.009 31.8253 351.009C32.7463 351.009 33.4943 351.756 33.4943 352.678C33.4943 353.6 32.7463 354.347 31.8253 354.347Z" fill="#5EB77D"/>
<path d="M327.974 386.025H510.856L524.803 372.069H710.462V370.959H524.344L510.396 384.915H327.974V386.025Z" fill="#5EB77D"/>
<path d="M328.058 387.14C327.136 387.14 326.389 386.392 326.389 385.471C326.389 384.549 327.136 383.802 328.058 383.802C328.98 383.802 329.727 384.549 329.727 385.471C329.727 386.392 328.98 387.14 328.058 387.14Z" fill="#5EB77D"/>
<path d="M164.693 363.769H477.995L490.757 351.018H712.16L746.061 317.117H770.176V316.006H745.602L711.701 349.908H490.297L477.536 362.659H165.152L142.652 340.169H82.2865L53.8775 311.769H-16.4895L-28.1515 300.108L-28.9365 300.892L-16.9495 312.879H53.4175L81.8265 341.28H142.192L164.693 363.769Z" fill="#5EB77D"/>
<path d="M93.5382 289.494H173.521L198.635 264.38H265.914V263.27H198.176L173.062 288.385H93.9982L77.3602 271.746L76.5752 272.53L93.5382 289.494Z" fill="#5EB77D"/>
<path d="M265.831 265.494C266.753 265.494 267.5 264.747 267.5 263.825C267.5 262.903 266.753 262.156 265.831 262.156C264.909 262.156 264.162 262.903 264.162 263.825C264.162 264.747 264.909 265.494 265.831 265.494Z" fill="#5EB77D"/>
<path d="M75.8464 273.377C75.1944 272.726 75.1944 271.668 75.8464 271.017C76.4984 270.365 77.5554 270.365 78.2064 271.017C78.8584 271.668 78.8584 272.726 78.2064 273.377C77.5544 274.028 76.4984 274.028 75.8464 273.377Z" fill="#5EB77D"/>
<path d="M77.8408 316.203H130.057L148.877 297.392L148.092 296.607L129.598 315.093H77.8408V316.203Z" fill="#5EB77D"/>
<path d="M149.605 298.239C150.257 297.588 150.257 296.531 149.605 295.879C148.954 295.227 147.897 295.226 147.245 295.878C146.593 296.53 146.593 297.587 147.245 298.238C147.896 298.89 148.953 298.89 149.605 298.239Z" fill="#5EB77D"/>
<path d="M77.9239 317.316C77.0019 317.316 76.2549 316.569 76.2549 315.647C76.2549 314.725 77.0019 313.978 77.9239 313.978C78.8459 313.978 79.5929 314.725 79.5929 315.647C79.5929 316.569 78.8459 317.316 77.9239 317.316Z" fill="#5EB77D"/>
</g>
<defs>
<clipPath id="clip0_95_177">
<rect width="528" height="501" fill="white"/>
</clipPath>
</defs>
</svg>
