<svg width="528" height="501" viewBox="0 0 528 501" fill="none" xmlns="http://www.w3.org/2000/svg">
<g clip-path="url(#clip0_95_133)">
<path d="M108.59 221.216H-428.414V220.107H108.59V221.216Z" fill="#5EB77D"/>
<path d="M108.506 222.33C109.428 222.33 110.175 221.583 110.175 220.661C110.175 219.739 109.428 218.992 108.506 218.992C107.584 218.992 106.837 219.739 106.837 220.661C106.837 221.583 107.584 222.33 108.506 222.33Z" fill="#5EB77D"/>
<path d="M-123.974 192.758H-261.564V191.648H-124.433L-63.3195 130.553H175.23L188.205 117.569H253.258L275.506 139.825H369.325L386.289 156.779L385.504 157.565L368.866 140.936H275.047L252.799 118.679H188.665L175.69 131.662H-62.8605L-123.974 192.758Z" fill="#5EB77D"/>
<path d="M384.658 158.293C385.31 158.944 386.367 158.944 387.018 158.293C387.67 157.641 387.67 156.584 387.018 155.933C386.366 155.281 385.309 155.281 384.657 155.933C384.006 156.585 384.006 157.642 384.658 158.293Z" fill="#5EB77D"/>
<path d="M170.674 178.082H-80.2036V176.972H170.215L193.647 153.529H296.083V154.639H194.107L170.674 178.082Z" fill="#5EB77D"/>
<path d="M296.001 155.753C296.923 155.753 297.67 155.005 297.67 154.084C297.67 153.162 296.923 152.415 296.001 152.415C295.079 152.415 294.332 153.162 294.332 154.084C294.332 155.005 295.079 155.753 296.001 155.753Z" fill="#5EB77D"/>
<path d="M-323.179 182.708H-405.536V181.599H-323.639L-278.444 136.403H-201.439L-119.408 54.373H178.899V55.482H-118.949L-200.98 137.514H-277.985L-323.179 182.708Z" fill="#5EB77D"/>
<path d="M178.816 56.5967C179.738 56.5967 180.485 55.8497 180.485 54.9277C180.485 54.0067 179.738 53.2587 178.816 53.2587C177.894 53.2587 177.147 54.0067 177.147 54.9277C177.147 55.8497 177.894 56.5967 178.816 56.5967Z" fill="#5EB77D"/>
<path d="M-140.545 174.174L-141.33 173.39L-79.2296 111.29H40.7454L63.3414 88.7018H227.589L239.165 100.269H324.684L345.585 121.177L344.8 121.962L324.225 101.378H238.705L227.13 89.8118H63.8014L41.2044 112.4H-78.7696L-140.545 174.174Z" fill="#5EB77D"/>
<path d="M343.954 122.69C344.606 123.341 345.662 123.341 346.314 122.69C346.966 122.039 346.966 120.982 346.315 120.33C345.663 119.678 344.606 119.678 343.955 120.33C343.303 120.981 343.302 122.038 343.954 122.69Z" fill="#5EB77D"/>
<path d="M-150.585 140.7L-151.37 139.916L-97.0936 85.6312H11.7324L27.0794 70.2942H265.074L277.601 57.7572L278.386 58.5422L265.533 71.4042H27.5394L12.1924 86.7402H-96.6336L-150.585 140.7Z" fill="#5EB77D"/>
<path d="M279.116 59.3887C279.767 58.7367 279.767 57.6797 279.115 57.0287C278.463 56.3767 277.406 56.3767 276.755 57.0297C276.103 57.6807 276.104 58.7377 276.756 59.3897C277.408 60.0397 278.465 60.0397 279.116 59.3887Z" fill="#5EB77D"/>
<path d="M158.809 160.956H-57.3262V159.847H158.809V160.956Z" fill="#5EB77D"/>
<path d="M158.726 162.07C159.648 162.07 160.395 161.323 160.395 160.401C160.395 159.48 159.648 158.732 158.726 158.732C157.804 158.732 157.057 159.48 157.057 160.401C157.057 161.323 157.804 162.07 158.726 162.07Z" fill="#5EB77D"/>
<path d="M270.969 340.917H42.1448L-17.2892 281.494H-285.168L-323.112 236.845H-408.324V235.734H-322.599L-284.655 280.385H-16.8292L42.6038 339.808H270.969V340.917Z" fill="#5EB77D"/>
<path d="M270.885 342.031C271.806 342.031 272.554 341.284 272.554 340.362C272.554 339.441 271.806 338.693 270.885 338.693C269.964 338.693 269.216 339.441 269.216 340.362C269.216 341.284 269.964 342.031 270.885 342.031Z" fill="#5EB77D"/>
<path d="M295.52 293.217H102.685L64.1777 254.708H-285.843V253.598H64.6377L103.145 292.107H295.52V293.217Z" fill="#5EB77D"/>
<path d="M295.436 294.33C296.357 294.33 297.105 293.583 297.105 292.661C297.105 291.739 296.357 290.992 295.436 290.992C294.514 290.992 293.767 291.739 293.767 292.661C293.767 293.583 294.514 294.33 295.436 294.33Z" fill="#5EB77D"/>
<path d="M322.87 320.002H186.951L174.394 307.444H68.0947L26.3667 265.717L27.1507 264.933L68.5537 306.334H174.853L187.411 318.893H322.87V320.002Z" fill="#5EB77D"/>
<path d="M25.6379 266.564C24.9859 265.912 24.9859 264.855 25.6379 264.204C26.2899 263.552 27.3459 263.552 27.9979 264.204C28.6499 264.855 28.6499 265.912 27.9979 266.564C27.3459 267.215 26.2899 267.215 25.6379 266.564Z" fill="#5EB77D"/>
<path d="M322.787 321.116C323.708 321.116 324.456 320.369 324.456 319.447C324.456 318.525 323.708 317.778 322.787 317.778C321.865 317.778 321.118 318.525 321.118 319.447C321.118 320.369 321.865 321.116 322.787 321.116Z" fill="#5EB77D"/>
<path d="M98.54 238.808H-120.937V237.698H98.54V238.808Z" fill="#5EB77D"/>
<path d="M98.4566 239.922C99.3786 239.922 100.126 239.175 100.126 238.253C100.126 237.331 99.3786 236.584 98.4566 236.584C97.5346 236.584 96.7876 237.331 96.7876 238.253C96.7876 239.175 97.5346 239.922 98.4566 239.922Z" fill="#5EB77D"/>
<path d="M185.738 273.116H102.304V272.007H185.279L218.762 238.533H372.253V239.642H219.221L185.738 273.116Z" fill="#5EB77D"/>
<path d="M102.387 274.23C101.466 274.23 100.718 273.482 100.718 272.561C100.718 271.639 101.466 270.892 102.387 270.892C103.309 270.892 104.056 271.639 104.056 272.561C104.056 273.482 103.309 274.23 102.387 274.23Z" fill="#5EB77D"/>
<path d="M372.169 240.757C373.09 240.757 373.838 240.01 373.838 239.088C373.838 238.166 373.09 237.419 372.169 237.419C371.248 237.419 370.5 238.166 370.5 239.088C370.5 240.01 371.248 240.757 372.169 240.757Z" fill="#5EB77D"/>
<path d="M327.059 218.708H181.09L163.518 201.136H-9.75635L-21.5894 189.285L-20.8054 188.501L-9.29636 200.025H163.977L181.549 217.599H327.059V218.708Z" fill="#5EB77D"/>
<path d="M326.975 219.821C327.897 219.821 328.644 219.074 328.644 218.153C328.644 217.231 327.897 216.484 326.975 216.484C326.054 216.484 325.306 217.231 325.306 218.153C325.306 219.074 326.054 219.821 326.975 219.821Z" fill="#5EB77D"/>
<path d="M392.758 196.665H278.467L258.941 177.149H198.515V176.039H259.401L278.927 195.556H392.299L409.084 178.779L409.869 179.564L392.758 196.665Z" fill="#5EB77D"/>
<path d="M198.598 178.264C197.677 178.264 196.929 177.516 196.929 176.595C196.929 175.673 197.677 174.926 198.598 174.926C199.52 174.926 200.267 175.673 200.267 176.595C200.267 177.516 199.52 178.264 198.598 178.264Z" fill="#5EB77D"/>
<path d="M410.597 180.411C411.249 179.76 411.249 178.703 410.598 178.052C409.946 177.399 408.889 177.399 408.238 178.051C407.586 178.702 407.585 179.759 408.237 180.411C408.888 181.062 409.945 181.063 410.597 180.411Z" fill="#5EB77D"/>
<path d="M150.584 410.391H-201.993L-362.519 249.884L-361.735 249.1L-201.534 409.281H150.124L182.772 376.644H378.905L411.406 344.123H450.105V345.233H411.866L379.365 377.753H183.231L150.584 410.391Z" fill="#5EB77D"/>
<path d="M450.021 346.347C450.943 346.347 451.69 345.6 451.69 344.678C451.69 343.756 450.943 343.009 450.021 343.009C449.1 343.009 448.352 343.756 448.352 344.678C448.352 345.6 449.1 346.347 450.021 346.347Z" fill="#5EB77D"/>
<path d="M153.872 378.025H-29.0102L-42.9572 364.069H-228.616V362.959H-42.4982L-28.5502 376.915H153.872V378.025Z" fill="#5EB77D"/>
<path d="M153.788 379.14C154.71 379.14 155.457 378.392 155.457 377.471C155.457 376.549 154.71 375.802 153.788 375.802C152.867 375.802 152.119 376.549 152.119 377.471C152.119 378.392 152.867 379.14 153.788 379.14Z" fill="#5EB77D"/>
<path d="M317.152 355.769H3.8504L-8.91159 343.018H-230.315L-264.216 309.117H-288.331V308.006H-263.756L-229.856 341.908H-8.4516L4.30942 354.659H316.693L339.193 332.169H399.559L427.968 303.769H498.335L509.997 292.108L510.782 292.892L498.795 304.879H428.428L400.019 333.28H339.653L317.152 355.769Z" fill="#5EB77D"/>
<path d="M511.511 293.738C512.163 293.087 512.163 292.03 511.511 291.378C510.86 290.726 509.803 290.726 509.151 291.378C508.499 292.03 508.499 293.087 509.151 293.738C509.802 294.389 510.859 294.39 511.511 293.738Z" fill="#5EB77D"/>
<path d="M388.308 281.494H308.325L283.211 256.38H215.932V255.27H283.67L308.784 280.385H387.848L404.486 263.746L405.271 264.53L388.308 281.494Z" fill="#5EB77D"/>
<path d="M216.015 257.494C215.094 257.494 214.346 256.747 214.346 255.825C214.346 254.903 215.094 254.156 216.015 254.156C216.937 254.156 217.684 254.903 217.684 255.825C217.684 256.747 216.937 257.494 216.015 257.494Z" fill="#5EB77D"/>
<path d="M405.999 265.377C406.651 264.726 406.651 263.668 405.999 263.017C405.347 262.365 404.29 262.365 403.639 263.017C402.987 263.668 402.987 264.726 403.639 265.377C404.291 266.028 405.347 266.028 405.999 265.377Z" fill="#5EB77D"/>
<path d="M404.005 308.203H351.789L332.969 289.392L333.754 288.607L352.248 307.093H404.005V308.203Z" fill="#5EB77D"/>
<path d="M332.241 290.239C331.589 289.588 331.589 288.531 332.24 287.879C332.892 287.227 333.949 287.226 334.601 287.878C335.253 288.53 335.253 289.587 334.601 290.238C333.95 290.89 332.893 290.89 332.241 290.239Z" fill="#5EB77D"/>
<path d="M403.922 309.316C404.843 309.316 405.591 308.569 405.591 307.647C405.591 306.725 404.843 305.978 403.922 305.978C403 305.978 402.253 306.725 402.253 307.647C402.253 308.569 403 309.316 403.922 309.316Z" fill="#5EB77D"/>
</g>
<defs>
<clipPath id="clip0_95_133">
<rect width="528" height="501" fill="white"/>
</clipPath>
</defs>
</svg>
