<svg width="94" height="108" viewBox="0 0 94 108" fill="none" xmlns="http://www.w3.org/2000/svg">
<path d="M46.6484 99.5705C42.1854 99.6295 42.6634 99.0585 42.6044 101.873C42.5444 104.744 42.5784 104.745 45.4574 104.747C46.6404 104.748 47.8244 104.757 49.0074 104.738C49.5884 104.728 50.1384 104.762 50.3764 103.96C51.2434 101.041 50.2444 99.5705 47.3144 99.5705H46.6484ZM46.8644 92.8715H6.68536C6.24136 92.8715 5.79437 92.9085 5.35437 92.8655C4.32537 92.7655 3.96637 93.1655 3.89037 94.2335C3.77337 95.8815 4.31136 96.3825 5.99836 96.3795C33.2274 96.3285 60.4574 96.3405 87.6874 96.3545C88.9574 96.3545 89.9304 96.4305 89.9544 94.5895C89.9794 92.6925 88.9414 92.8605 87.7084 92.8625C74.0944 92.8765 60.4794 92.8715 46.8644 92.8715ZM0.672363 44.4395C1.49036 43.0235 2.69437 42.5235 4.34137 42.5355C12.8584 42.5925 21.3764 42.5695 29.8944 42.5515C31.0064 42.5495 31.8114 42.4925 31.8344 44.1085C31.8574 45.8135 31.0294 45.8065 29.8024 45.8025C21.8774 45.7745 13.9514 45.8355 6.02737 45.7505C4.38737 45.7325 3.87937 46.1395 3.88837 47.8325C3.95537 61.0905 3.94537 74.3485 3.89737 87.6065C3.89237 89.1175 4.28837 89.6535 5.88237 89.6505C33.2134 89.6075 60.5444 89.6095 87.8754 89.6465C89.3854 89.6485 89.9314 89.2575 89.9244 87.6645C89.8684 74.3325 89.8644 60.9995 89.9274 47.6675C89.9354 46.0085 89.2944 45.7505 87.8484 45.7605C79.9234 45.8185 71.9974 45.7815 64.0724 45.7965C62.9114 45.7985 61.9904 45.9245 61.9814 44.1505C61.9714 42.2925 63.0244 42.5615 64.1194 42.5615C72.5624 42.5615 81.0064 42.5915 89.4504 42.5365C91.0934 42.5255 92.3134 43.0045 93.1244 44.4395V97.7775C92.0534 99.1745 90.6664 99.6145 88.8964 99.6035C78.0824 99.5365 67.2684 99.5565 56.4544 99.5785C53.1814 99.5845 53.7514 99.1325 53.5354 102.349C53.4014 104.35 54.0514 105.041 55.9944 104.768C56.8664 104.645 57.7694 104.739 58.6584 104.751C59.5404 104.762 60.4764 104.657 60.9804 105.647C61.5034 106.674 60.6924 107.283 60.2324 108H33.5634C33.1274 107.278 32.2894 106.681 32.8224 105.655C33.3294 104.68 34.2524 104.758 35.1374 104.75C35.8014 104.743 36.4844 104.645 37.1264 104.765C39.4154 105.194 39.4234 103.811 39.3654 102.18C39.3124 100.693 39.6244 99.4645 37.2124 99.5005C26.4394 99.6615 15.6634 99.5365 4.88837 99.6045C3.11937 99.6155 1.74636 99.1545 0.672363 97.7775V44.4395Z" fill="#5DB27B"/>
<path d="M40.9813 10.332C41.2813 11.591 40.3543 13.22 41.5073 14.104C43.1243 15.345 45.0543 16.946 46.8583 16.957C48.6553 16.968 50.5133 15.284 52.2463 14.188C53.3013 13.52 52.8003 12.268 52.7503 11.31C52.6713 9.81695 53.5423 7.96395 52.2163 6.90195C50.6393 5.63995 48.7603 3.94995 46.8583 4.10895C44.9873 4.26595 43.1293 5.75995 41.4813 6.96295C40.4443 7.71895 41.2363 9.19295 40.9813 10.332ZM47.7873 0.435953C49.6333 1.50095 51.4803 2.56395 53.3253 3.63095C53.7733 3.88995 54.2423 4.12195 54.6533 4.43095C57.1953 6.34295 56.8483 15.2 54.1723 16.917C54.0483 16.996 53.9133 17.06 53.7853 17.132C45.5503 21.795 48.1413 21.643 39.6503 16.927C39.5213 16.855 39.3903 16.785 39.2713 16.698C36.5883 14.729 36.8863 5.82095 39.7203 4.09595C41.7923 2.83495 43.9113 1.65295 46.0093 0.435953H47.7873Z" fill="#5DB27B"/>
<path d="M79.8082 10.5996C79.4622 9.37261 80.4892 7.77661 79.1782 6.87661C77.4902 5.71761 75.5822 4.10561 73.7732 4.11061C71.9612 4.11661 70.1032 5.79161 68.3662 6.89361C67.3092 7.56261 67.8362 8.81461 67.8692 9.77961C67.9192 11.2086 67.1322 13.0166 68.3152 13.9986C69.9282 15.3386 71.9732 16.9816 73.8282 16.9756C75.6872 16.9696 77.6582 15.2546 79.3542 13.9856C80.3572 13.2346 79.5432 11.7486 79.8082 10.5996ZM74.9002 0.436613C76.8472 1.60061 78.7772 2.79361 80.7452 3.91961C82.2202 4.76261 83.1102 5.89361 82.9492 7.67061C82.9362 7.81861 82.9502 7.96661 82.9472 8.11461C82.7822 17.4856 84.3862 14.9146 75.6872 19.9656C72.6712 21.7176 64.6292 16.9406 64.6672 13.4586C64.7762 3.79461 63.2592 6.16361 71.2592 1.40461C71.7502 1.11161 72.2062 0.759613 72.6782 0.436613H74.9002Z" fill="#5DB27B"/>
<path d="M13.9981 10.4266C14.2611 11.6486 13.4191 13.2066 14.4961 14.0176C16.1851 15.2876 18.1721 16.9886 20.0281 16.9816C21.8891 16.9756 23.8111 15.2006 25.5721 14.0046C26.4551 13.4056 26.0011 12.1906 25.9341 11.2886C25.8241 9.80261 26.7451 7.95861 25.3751 6.89561C23.7701 5.64861 21.7951 4.10661 19.9861 4.11261C18.1731 4.11761 16.2741 5.74061 14.5891 6.90961C13.3831 7.74561 14.3131 9.26761 13.9981 10.4266ZM21.1191 0.436613C22.9971 1.57261 24.8401 2.77361 26.7641 3.82561C28.4251 4.73561 29.3641 5.95761 29.1611 7.90861C29.1531 7.98261 29.1611 8.05661 29.1601 8.13061C29.0111 17.4116 30.4791 14.9136 22.0901 19.8946C21.9631 19.9696 21.8291 20.0316 21.6951 20.0946C18.6391 21.5136 10.8391 16.7906 10.8761 13.4436C10.9851 3.66061 9.51012 6.17061 17.4691 1.39161C17.9591 1.09661 18.4211 0.755613 18.8961 0.436613H21.1191Z" fill="#5DB27B"/>
<path d="M48.5201 64.9814C49.7021 64.5124 50.7281 63.9344 51.5181 65.0464C52.2781 66.1174 51.5711 66.9804 50.9721 67.8494C50.1331 69.0664 49.3881 70.3494 48.5111 71.5364C47.4661 72.9494 46.3461 72.9564 45.3001 71.5504C44.4191 70.3674 43.6701 69.0854 42.8391 67.8644C42.2521 67.0004 41.5081 66.1374 42.2811 65.0654C43.0701 63.9704 44.0851 64.4024 45.0171 64.9504C45.4831 64.0814 45.2851 63.2514 45.2861 62.4564C45.3001 50.7614 45.2951 39.0674 45.2991 27.3724C45.2991 26.7084 45.2941 26.0374 45.3831 25.3804C45.4981 24.5414 46.0691 24.0444 46.8921 24.0334C47.7191 24.0204 48.3051 24.5074 48.4211 25.3484C48.5221 26.0764 48.5161 26.8224 48.5161 27.5604C48.5211 39.9164 48.5201 52.2714 48.5201 64.9814Z" fill="#5DB27B"/>
<path d="M38.4643 56.5986C39.5703 56.0506 40.6003 55.5116 41.4073 56.5506C42.1903 57.5576 41.5613 58.4916 40.9643 59.3696C40.0933 60.6546 39.2813 61.9816 38.3683 63.2346C37.4003 64.5626 36.2813 64.5646 35.3033 63.2606C34.3733 62.0216 33.5463 60.7026 32.7043 59.4006C32.1553 58.5506 31.3493 57.7216 32.2023 56.6096C33.0623 55.4886 34.0273 56.1096 35.2593 56.6096C35.2593 51.6896 35.1083 46.9236 35.3203 42.1746C35.4323 39.6576 34.6643 37.8696 32.8833 36.1546C29.9563 33.3346 27.2433 30.2926 24.4353 27.3486C23.6283 26.5036 22.8433 25.5986 23.9553 24.5136C25.0753 23.4206 25.9603 24.2346 26.7693 25.0786C30.1443 28.6056 33.5073 32.1446 36.9033 35.6516C38.0523 36.8386 38.5133 38.1756 38.4913 39.8426C38.4193 45.3136 38.4643 50.7866 38.4643 56.5986Z" fill="#5DB27B"/>
<path d="M58.5556 56.5539C59.7276 56.2049 60.7776 55.4029 61.6616 56.6959C62.4566 57.8569 61.5686 58.6429 61.0426 59.4809C60.2176 60.7939 59.3896 62.1149 58.4476 63.3429C57.5296 64.5399 56.4106 64.5229 55.5076 63.3239C54.5306 62.0279 53.6986 60.6239 52.7846 59.2799C52.1746 58.3829 51.6386 57.4129 52.4926 56.4699C53.2546 55.6279 54.2246 55.8549 55.3366 56.8629C55.3366 51.0949 55.4216 45.7349 55.2956 40.3799C55.2446 38.2039 55.9356 36.5799 57.4476 35.0679C60.6356 31.8769 63.7046 28.5679 66.8336 25.3179C67.6456 24.4749 68.4936 23.2989 69.7796 24.4579C71.1876 25.7269 69.9876 26.7039 69.1406 27.6029C66.0466 30.8859 62.9546 34.1719 59.7996 37.3959C58.9086 38.3069 58.5126 39.2309 58.5286 40.5209C58.5936 45.8239 58.5556 51.1269 58.5556 56.5539Z" fill="#5DB27B"/>
<path d="M48.4794 77.6906C48.4114 78.6136 47.9414 79.2426 47.0084 79.3056C46.0764 79.3686 45.4334 78.8306 45.3604 77.9006C45.2794 76.8666 45.8714 76.1866 46.9094 76.1736C47.8234 76.1636 48.3734 76.7486 48.4794 77.6906Z" fill="#5DB27B"/>
<path d="M48.4793 84.4784C48.4083 85.4264 47.8673 86.0244 46.9593 86.0424C45.9233 86.0644 45.3133 85.4074 45.3643 84.3634C45.4093 83.4224 46.0323 82.8774 46.9653 82.9114C47.9023 82.9434 48.3963 83.5474 48.4793 84.4784Z" fill="#5DB27B"/>
<path d="M36.7773 67.71C37.8923 67.902 38.5113 68.448 38.4323 69.506C38.3603 70.467 37.6603 70.981 36.7973 70.939C35.8173 70.892 35.2023 70.276 35.2743 69.184C35.3413 68.167 36.0623 67.888 36.7773 67.71Z" fill="#5DB27B"/>
<path d="M56.9856 70.9834C56.0076 70.7904 55.3166 70.3134 55.3706 69.2404C55.4186 68.2834 56.0816 67.7434 56.9536 67.7544C57.9396 67.7684 58.5716 68.3464 58.5246 69.4484C58.4816 70.4514 57.8146 70.8024 56.9856 70.9834Z" fill="#5DB27B"/>
<path d="M38.4593 75.8957C38.3983 77.0387 37.8133 77.6577 36.8193 77.6587C35.9363 77.6597 35.3323 77.1237 35.2843 76.1577C35.2363 75.2037 35.6773 74.6377 36.6513 74.5567C37.6933 74.4717 38.2783 74.9777 38.4593 75.8957Z" fill="#5DB27B"/>
<path d="M56.9903 74.541C57.9143 74.59 58.5093 74.995 58.5233 75.992C58.5373 77.053 57.9413 77.67 56.9393 77.658C56.0733 77.648 55.4063 77.101 55.3773 76.161C55.3443 75.122 55.9413 74.575 56.9903 74.541Z" fill="#5DB27B"/>
</svg>
