<svg width="118" height="118" viewBox="0 0 118 118" fill="none" xmlns="http://www.w3.org/2000/svg">
<path d="M97.1641 13.2793C97.9831 11.8232 97.4261 10.2703 97.5661 8.79926C97.6771 7.62525 98.0961 6.73325 99.3501 6.75125C100.541 6.76825 101.218 7.61325 101.238 8.76925C101.291 11.8483 101.292 14.9303 101.245 18.0103C101.217 19.8523 99.9981 20.5113 98.3921 20.2573C94.8501 19.6963 90.8831 21.8473 87.8101 18.9723C86.9591 18.1763 88.1351 16.9122 89.4951 16.6442C90.7171 16.4043 92.0431 16.9533 93.5371 15.9543C86.6381 10.0963 78.8271 6.38126 70.1751 4.87325C47.8571 0.982254 29.0071 7.60426 15.3831 25.7723C1.6751 44.0513 0.638095 64.0153 10.6551 84.5653C11.3931 86.0793 13.8141 88.0653 11.2401 89.4633C8.74409 90.8173 8.2211 87.8563 7.4091 86.3353C-5.5549 62.0143 0.0260963 32.1702 20.8441 14.1833C41.4171 -3.59175 71.8291 -4.78075 93.9191 11.2993C94.9111 12.0213 95.6871 13.1592 97.1641 13.2793Z" fill="#5DB27B"/>
<path d="M20.7738 103.405C20.7738 105.639 20.7698 107.022 20.7748 108.405C20.7798 109.54 20.4578 110.54 19.1728 110.611C17.7368 110.69 17.1118 109.707 17.0918 108.401C17.0458 105.449 17.0608 102.497 17.0808 99.5443C17.0928 97.7703 18.0798 97.0723 19.7898 97.0953C22.4858 97.1323 25.1818 97.0753 27.8768 97.0953C29.1748 97.1053 30.6798 97.0793 30.6778 98.9033C30.6758 100.673 29.2258 100.729 27.9008 100.787C27.0188 100.825 26.1378 100.883 24.9838 100.947C25.6458 102.745 27.1308 103.335 28.3028 104.133C49.1188 118.301 77.0438 116.468 95.6668 99.7513C114.694 82.6723 119.587 55.5343 107.798 32.9813C106.992 31.4393 104.372 29.3013 107.274 27.8643C109.704 26.6613 110.218 29.6843 111.027 31.2123C123.924 55.5773 118.257 85.3553 97.3728 103.304C76.7528 121.026 46.2538 122.133 24.3188 105.957C23.4068 105.285 22.4798 104.633 20.7738 103.405Z" fill="#5DB27B"/>
<path d="M58.9518 21.4132C75.6378 21.2912 90.1728 32.0432 94.9428 48.0482C95.2348 49.0292 95.4828 50.0262 95.6848 51.0292C95.9098 52.1452 95.6768 53.1422 94.4328 53.4562C93.2428 53.7552 92.4698 53.1722 92.1538 51.9962C91.9208 51.1302 91.7208 50.2542 91.4698 49.3932C87.3038 35.0592 73.7978 24.9322 59.0418 25.0682C44.0538 25.2082 30.8888 35.2612 26.8358 49.6622C26.5928 50.5262 26.4048 51.4082 26.1078 52.2522C25.7658 53.2212 25.0408 53.6692 24.0038 53.4442C22.9538 53.2172 22.4768 52.4482 22.6028 51.4712C22.7488 50.3342 23.0608 49.2112 23.3868 48.1072C28.0648 32.2512 42.3528 21.5332 58.9518 21.4132Z" fill="#5DB27B"/>
<path d="M58.6336 95.954C41.9176 95.609 27.9156 84.927 23.3076 68.99C23.0236 68.007 22.7366 67.009 22.6176 65.998C22.5046 65.045 22.8616 64.217 23.9336 63.964C24.9526 63.723 25.7196 64.098 26.0786 65.076C26.3866 65.914 26.5666 66.8 26.8166 67.66C31.0946 82.401 44.2946 92.397 59.3426 92.294C74.4726 92.19 87.3926 82.194 91.6056 67.338C91.8496 66.476 92.0406 65.585 92.4146 64.78C92.7696 64.015 93.5076 63.765 94.3546 63.938C95.2306 64.118 95.7426 64.734 95.7126 65.545C95.6746 66.557 95.4596 67.579 95.1956 68.562C90.8196 84.914 75.6026 96.305 58.6336 95.954Z" fill="#5DB27B"/>
<path d="M55.5058 68.8438C56.0738 68.5468 56.6048 68.4068 56.9428 68.0728C62.2178 62.8398 67.4818 57.5948 72.7108 52.3168C73.6358 51.3828 73.7528 50.2168 72.7458 49.2438C71.6908 48.2258 70.6108 48.6278 69.7008 49.5268C66.8758 52.3188 64.0998 55.1588 61.2668 57.9438C54.8408 64.2588 56.2648 64.2258 50.2188 58.2218C49.9468 57.9508 49.6728 57.6798 49.3928 57.4168C48.3608 56.4508 47.2708 55.8688 46.0808 57.1448C44.8788 58.4328 45.6278 59.4898 46.5878 60.4598C48.9298 62.8278 51.2718 65.1978 53.6528 67.5278C54.1778 68.0408 54.8608 68.3928 55.5058 68.8438ZM55.4378 72.5048C52.0428 72.4018 41.7038 62.0348 41.6818 58.6198C41.6658 56.2668 42.6918 54.4058 44.8368 53.3088C47.2908 52.0538 49.5138 52.5498 51.5948 54.2588C55.9378 57.8268 55.9528 57.8148 60.0818 53.7358C62.4498 51.3958 64.7358 48.9658 67.1898 46.7208C69.8768 44.2638 73.1228 44.2608 75.4598 46.5038C77.8708 48.8178 77.9298 52.3748 75.3238 55.0618C70.2428 60.3008 65.0328 65.4138 59.8738 70.5768C58.6508 71.8018 57.2298 72.5818 55.4378 72.5048Z" fill="#5DB27B"/>
</svg>
