<svg width="137" height="124" viewBox="0 0 137 124" fill="none" xmlns="http://www.w3.org/2000/svg">
<path d="M62.4418 84.0517C62.4418 76.0597 62.3768 68.0677 62.4828 60.0767C62.5138 57.7578 61.7688 56.9078 59.4078 56.9678C54.1538 57.1018 48.8928 56.9817 43.6358 57.0217C40.0888 57.0477 39.4918 57.6727 39.4818 61.3417C39.4578 70.2807 39.5028 79.2177 39.4488 88.1557C39.4388 89.9557 39.8698 91.2487 41.3728 92.4777C44.4998 95.0317 44.6838 98.9517 42.1058 101.62C39.5178 104.3 35.3168 104.186 32.8818 101.369C30.4958 98.6097 30.9408 94.6637 34.0598 92.2327C35.1198 91.4067 35.9178 90.6837 35.9088 89.2087C35.8618 82.1637 35.8898 75.1177 35.8808 68.0727C35.8798 67.3387 35.8578 66.5977 35.1308 66.1147C33.5068 65.0367 26.2008 66.1347 24.9098 67.6627C22.3048 70.7437 18.1238 71.1267 15.4888 68.5237C12.9888 66.0547 13.0358 61.8657 15.5908 59.4678C18.2938 56.9297 22.4328 57.3297 24.9458 60.5797C25.9008 61.8157 26.8748 62.3477 28.3748 62.2637C29.8428 62.1807 31.3278 62.1397 32.7888 62.2707C35.0778 62.4767 35.9168 61.6287 35.9738 59.2567C36.0648 55.4607 38.1688 53.5997 41.9958 53.4327C43.3608 53.3727 44.7388 53.3097 46.0938 53.4337C48.4158 53.6447 49.2498 52.7337 49.2118 50.3757C49.0978 43.3317 49.1268 36.2847 49.2008 29.2397C49.2208 27.2207 48.7888 25.7697 47.0258 24.4187C44.0158 22.1137 43.9538 17.7607 46.5298 15.2387C48.9978 12.8227 52.9348 12.8708 55.3118 15.3467C57.9708 18.1147 57.8498 22.0868 54.7238 24.4538C53.1588 25.6387 52.7148 26.8847 52.7378 28.7007C52.8118 34.7987 52.7148 40.8988 52.7778 46.9967C52.8528 54.2747 51.6308 53.2637 59.4008 53.4477C61.7538 53.5037 62.5008 52.6737 62.4818 50.3487C62.3908 38.8877 62.4448 27.4258 62.4228 15.9638C62.4208 15.0247 62.2768 14.0788 62.1258 13.1488C61.3548 8.41275 58.7328 5.15675 54.0028 4.19775C48.9778 3.18076 43.8518 3.82674 41.1088 8.52975C38.9678 12.1997 36.3918 12.7608 32.6928 12.8648C25.0208 13.0808 18.6348 17.8948 16.6508 24.4827C15.0938 29.6557 16.6778 34.2427 19.6078 38.4647C21.7528 41.5567 25.0578 39.5897 27.7948 40.1277C27.9978 40.1677 28.2168 40.1137 28.4248 40.1357C30.2338 40.3227 31.4948 39.7537 32.6688 38.1657C34.9608 35.0667 39.1588 34.8158 41.8218 37.3077C44.4748 39.7907 44.5328 43.7837 41.9518 46.3057C39.2778 48.9177 35.4398 48.6838 32.7528 45.7308C32.0618 44.9707 31.6448 43.9007 30.4118 43.7887C22.0438 43.0307 14.2688 43.9137 8.29082 50.8587C2.59782 57.4717 2.57382 66.4387 8.43182 72.9427C11.3268 76.1567 14.8858 78.2607 18.9418 79.6507C22.0128 80.7017 22.1838 81.4307 20.2788 84.1257C19.4918 85.2387 18.7088 86.3697 18.0728 87.5727C13.6978 95.8517 16.6358 104.715 25.0838 108.781C28.1608 110.263 31.3958 111.165 34.8348 110.925C37.4248 110.745 39.2118 111.474 40.3068 114.068C41.3258 116.481 43.4758 117.902 45.8748 118.932C48.2718 119.962 49.2458 119.495 49.2178 116.651C49.1068 105.085 49.1518 93.5168 49.1928 81.9497C49.1988 80.2588 48.7968 79.0627 47.3388 77.9427C44.1028 75.4557 43.8338 71.2507 46.4738 68.5787C49.0068 66.0157 53.0598 66.0778 55.4818 68.7197C58.0178 71.4867 57.7148 75.2887 54.5698 77.8457C53.4138 78.7857 52.7408 79.6787 52.7468 81.2277C52.7898 93.2147 52.8018 105.203 52.7398 117.191C52.7288 119.431 53.6128 119.638 55.4398 118.989C59.7838 117.446 62.3608 113.489 62.4168 107.712C62.4938 99.8257 62.4368 91.9387 62.4418 84.0517ZM66.0338 62.0287C66.0378 77.1627 66.0458 92.2977 66.0348 107.433C66.0288 115.334 62.6838 120.525 56.2568 122.676C49.1538 125.054 42.0718 122.87 37.5468 116.744C36.5608 115.408 35.4928 114.874 33.8888 114.783C28.2888 114.467 23.1928 112.755 18.8478 109.064C12.3938 103.579 10.4858 95.0337 14.0518 87.3917C16.0798 83.0447 16.0798 83.0447 11.8338 80.4817C2.94882 75.1157 -1.36718 66.3267 0.761819 57.4367C2.52982 50.0497 7.49282 45.2048 14.1198 42.0137C16.1068 41.0567 16.2338 40.2087 15.2288 38.4678C6.99882 24.2087 17.4278 10.9307 30.8618 9.28875C34.3438 8.86375 36.9168 7.89275 39.2468 4.92675C42.9868 0.166748 50.6888 -1.17325 56.6438 1.05575C62.4458 3.22775 65.9768 8.32076 66.0078 15.0478C66.0798 30.7077 66.0308 46.3677 66.0338 62.0287Z" fill="#5DB27B"/>
<path d="M74.874 39.5869C74.874 47.5799 74.936 55.5729 74.835 63.5659C74.806 65.8479 75.481 66.7689 77.878 66.7059C83.133 66.5669 88.394 66.6909 93.652 66.6509C97.207 66.6249 97.823 65.9899 97.833 62.3479C97.859 53.5129 97.807 44.6789 97.87 35.8449C97.884 33.8299 97.5 32.3109 95.723 30.9859C93.634 29.4309 92.92 27.0579 93.758 24.4819C94.625 21.8169 96.557 20.2619 99.347 20.1119C102.135 19.9639 104.288 21.2849 105.376 23.8519C106.508 26.5219 106.015 29.0339 103.783 31.0159C102.707 31.9709 101.371 32.5479 101.394 34.4089C101.481 41.4549 101.424 48.5019 101.432 55.5479C101.434 56.5199 101.531 57.7899 102.726 57.6909C106.253 57.3989 110.172 59.4169 113.09 55.3279C115.005 52.6449 119.18 52.7739 121.592 54.9299C124.146 57.2119 124.368 61.1649 122.084 63.7159C119.835 66.2279 115.576 66.9759 113.699 64.3609C111.189 60.8629 108.025 61.5669 104.771 61.3959C102.46 61.2739 101.353 61.8369 101.324 64.4879C101.283 68.1139 99.135 70.0149 95.536 70.2309C94.278 70.3059 92.999 70.3759 91.753 70.2339C89.074 69.9309 88.007 70.8299 88.083 73.7099C88.269 80.7509 88.188 87.8009 88.114 94.8469C88.095 96.6829 88.622 97.9099 90.136 99.1009C93.168 101.481 93.385 105.691 90.905 108.286C88.447 110.859 84.317 110.83 81.898 108.223C79.326 105.45 79.506 101.581 82.634 99.0849C84.158 97.8689 84.594 96.5839 84.575 94.7799C84.509 88.6819 84.594 82.5809 84.539 76.4819C84.476 69.4309 85.591 70.4259 78.038 70.2129C75.476 70.1409 74.803 71.0889 74.83 73.5149C74.936 83.1889 74.854 92.8649 74.885 102.541C74.893 105.164 74.813 107.821 75.193 110.401C75.946 115.508 78.86 118.67 83.503 119.49C88.579 120.387 93.531 119.693 96.331 114.969C98.234 111.757 100.395 110.886 103.866 110.816C112.193 110.645 118.785 105.844 120.723 98.9499C122.146 93.8899 120.586 89.4019 117.75 85.2499C115.604 82.1079 112.314 84.0829 109.585 83.5329C109.484 83.5129 109.375 83.5389 109.271 83.5289C107.266 83.3349 105.789 83.8579 104.441 85.6449C102.214 88.5959 98.142 88.7429 95.514 86.3609C92.845 83.9409 92.76 79.8979 95.325 77.3649C97.889 74.8319 101.716 74.9619 104.324 77.6619C105.103 78.4679 105.496 79.7409 106.855 79.8609C115.087 80.5859 122.79 79.8449 128.77 73.0539C134.774 66.2329 134.831 57.1969 128.644 50.5169C125.865 47.5159 122.491 45.4769 118.647 44.1329C115.169 42.9169 115.045 42.3679 117.243 39.2749C117.911 38.3339 118.559 37.3679 119.11 36.3559C123.444 28.3879 121.136 20.0549 113.326 15.4439C109.878 13.4089 106.111 12.5439 102.141 12.7389C99.774 12.8559 98.156 12.1689 97.153 9.85287C96.062 7.33387 93.948 5.78387 91.428 4.71187C88.964 3.66387 88.075 4.24687 88.1 7.03087C88.205 18.5989 88.167 30.1679 88.12 41.7359C88.113 43.4419 88.57 44.6209 89.983 45.7519C93.204 48.3279 93.449 52.4859 90.788 55.1109C88.288 57.5779 84.445 57.5849 82.003 55.1259C79.275 52.3779 79.504 48.3759 82.778 45.7819C84.097 44.7359 84.575 43.6679 84.57 42.0659C84.53 30.3929 84.561 18.7189 84.542 7.04487C84.537 4.01987 83.973 3.62086 81.235 4.85187C76.477 6.98887 74.948 11.1069 74.901 15.9239C74.824 23.8109 74.88 31.6989 74.874 39.5869ZM71.279 61.8589C71.278 46.7249 71.273 31.5909 71.28 16.4559C71.284 8.37186 74.625 3.09187 81.089 0.905869C88.024 -1.43813 95.256 0.83387 99.783 6.95087C100.777 8.29387 101.869 8.78487 103.457 8.88287C107.812 9.14986 111.948 10.2369 115.702 12.5699C124.619 18.1099 127.517 27.7809 122.754 37.1089C121.37 39.8199 121.072 41.1729 124.354 42.6829C129.438 45.0229 133.244 48.9959 135.441 54.2709C139.577 64.1969 135.13 75.2259 124.781 80.8349C121.031 82.8669 121.031 82.8669 122.848 86.6799C128.718 98.9969 121.119 112.38 106.956 114.285C103.285 114.779 100.459 115.566 97.951 118.791C94.176 123.644 86.375 124.83 80.249 122.445C74.692 120.281 71.311 115.134 71.294 108.524C71.253 92.9689 71.281 77.4139 71.279 61.8589Z" fill="#5DB27B"/>
</svg>
